<?xml version="1.0" encoding="UTF-8" standalone="no"?>
<!-- Creator: CorelDRAW -->

<svg
   xml:space="preserve"
   width="314.49503"
   height="312.58221"
   style="fill-rule:evenodd"
   viewBox="0 0 294.83908 293.04583"
   id="svg2"
   sodipodi:version="0.32"
   inkscape:version="1.1.2 (b8e25be8, 2022-02-05)"
   sodipodi:docname="guilloche-center.svg"
   inkscape:output_extension="org.inkscape.output.svg.inkscape"
   version="1.0"
   xmlns:inkscape="http://www.inkscape.org/namespaces/inkscape"
   xmlns:sodipodi="http://sodipodi.sourceforge.net/DTD/sodipodi-0.dtd"
   xmlns="http://www.w3.org/2000/svg"
   xmlns:svg="http://www.w3.org/2000/svg"
   xmlns:rdf="http://www.w3.org/1999/02/22-rdf-syntax-ns#"
   xmlns:cc="http://creativecommons.org/ns#"
   xmlns:dc="http://purl.org/dc/elements/1.1/"><metadata
   id="metadata16"><rdf:RDF><cc:Work
       rdf:about=""><dc:format>image/svg+xml</dc:format><dc:type
         rdf:resource="http://purl.org/dc/dcmitype/StillImage" /></cc:Work></rdf:RDF></metadata><sodipodi:namedview
   inkscape:window-height="1000"
   inkscape:window-width="1680"
   inkscape:pageshadow="2"
   inkscape:pageopacity="0.0"
   guidetolerance="10.0"
   gridtolerance="10.0"
   objecttolerance="10.0"
   borderopacity="1.0"
   bordercolor="#666666"
   pagecolor="#ffffff"
   id="base"
   showgrid="false"
   inkscape:zoom="0.9350393"
   inkscape:cx="388.75371"
   inkscape:cy="289.82739"
   inkscape:window-x="0"
   inkscape:window-y="25"
   inkscape:current-layer="Layer_x0020_1"
   inkscape:pagecheckerboard="true"
   fit-margin-top="0"
   fit-margin-left="0"
   fit-margin-right="0"
   fit-margin-bottom="0"
   inkscape:window-maximized="0" />
 <defs
   id="defs4"><inkscape:perspective
   sodipodi:type="inkscape:persp3d"
   inkscape:vp_x="0 : 842.4983 : 1"
   inkscape:vp_y="0 : 2206.8038 : 0"
   inkscape:vp_z="2336.5702 : 842.4983 : 1"
   inkscape:persp3d-origin="1168.2851 : 455.43876 : 1"
   id="perspective18" />
  <style
   type="text/css"
   id="style6">
   
    .str0 {stroke:#ED6E00;stroke-width:0.0762}
    .fil0 {fill:none}
   
  </style>
 </defs>
 <g
   id="Layer_x0020_1"
   style="fill:none;stroke:#000000;stroke-width:0.0705556;stroke-miterlimit:4;stroke-dasharray:none;stroke-opacity:1"
   transform="matrix(3.8069399,0,0,3.8069399,-321.21502,-254.90043)"
   inkscape:label="Layer 1"
   inkscape:groupmode="layer">
  <metadata
   id="CorelCorpID_0Corel-Layer" />
  <g
   id="_186013552"
   style="fill:none;stroke:#000000;stroke-width:0.0705556;stroke-miterlimit:4;stroke-dasharray:none;stroke-opacity:1"
   transform="translate(12.905103,2.1069556)">
   <path
   id="_186010600"
   class="fil0 str0"
   d="m 112.45,105.585 h -1e-4 c -2.4008,-2.4055 -4.8205,-4.7924 -7.2024,-7.2165 -4.3293,-4.4059 -8.5966,-8.8768 -12.7912,-13.4112 -3.0135,-3.2576 -5.9944,-6.5519 -8.8539,-9.9462 -0.8544,-1.0142 -1.697,-2.0399 -2.4978,-3.0971 -0.3945,-0.5209 -0.8265,-1.0328 -1.0851,-1.6329 -0.0467,-0.1084 0.245,-0.154 0.3432,-0.0884 0.6275,0.4194 1.1733,0.952 1.7228,1.4692 1.024,0.9638 2.016,1.9619 2.9952,2.9712 3.1208,3.217 6.139,6.5359 9.1142,9.8874 8.2644,9.3098 16.2231,18.8997 23.94,28.6673 3.5837,4.5359 7.11,9.1182 10.5555,13.7601 2.4549,3.3073 4.8772,6.6457 7.1744,10.0651 0.6751,1.0049 1.339,2.0187 1.9581,3.059 0.2944,0.4947 0.6391,0.983 0.7797,1.5412 0.0328,0.1304 -0.2994,0.0472 -0.4015,-0.0402 -0.5639,-0.483 -1.0467,-1.0551 -1.5326,-1.6164 -0.8809,-1.0176 -1.7293,-2.0636 -2.5658,-3.1179 -2.6233,-3.3062 -5.1476,-6.6931 -7.6336,-10.1033 -6.7913,-9.3161 -13.3092,-18.8379 -19.6224,-28.4838 -2.8959,-4.4249 -5.7438,-8.8822 -8.5226,-13.3816 -1.9652,-3.1821 -3.9024,-6.3861 -5.7346,-9.647 -0.5342,-0.9507 -1.059,-1.9078 -1.5467,-2.8833 -0.229,-0.4581 -0.5006,-0.9119 -0.6018,-1.414 -0.0233,-0.1158 0.2585,0.0193 0.3381,0.1065 0.4555,0.4991 0.8414,1.0587 1.23,1.6114 1.6782,2.3871 3.2314,4.8695 4.7621,7.3527 5.1469,8.3487 9.9838,16.8989 14.6206,25.5401 3.4998,6.5226 6.8883,13.1114 10.0526,19.804 1.4409,3.0472 2.8465,6.1201 4.0959,9.2517 0.3676,0.9213 0.7219,1.8496 1.0189,2.7959 0.1434,0.4571 0.3353,0.928 0.2998,1.4058 -0.01,0.1341 -0.3086,0.0558 -0.4014,-0.0415 -0.4183,-0.4386 -0.7342,-0.9673 -1.0525,-1.4831 -0.5755,-0.9324 -1.1095,-1.8907 -1.6263,-2.857 -1.6269,-3.0419 -3.1191,-6.1585 -4.5542,-9.2947 -3.9784,-8.694 -7.5477,-17.586 -10.7793,-26.5833 -1.5187,-4.2286 -2.9563,-8.4876 -4.2786,-12.7819 -0.9625,-3.1261 -1.8714,-6.2771 -2.6131,-9.4638 -0.2266,-0.9736 -0.4352,-1.9531 -0.5884,-2.9411 -0.0795,-0.5126 -0.1821,-1.039 -0.1087,-1.5525 0.0167,-0.1169 0.2677,-0.1782 0.3434,-0.0877 0.3376,0.4034 0.5369,0.9082 0.747,1.3905 0.402,0.9226 0.7534,1.8673 1.0861,2.817 1.0837,3.093 2.0086,6.2448 2.8732,9.4052 2.4799,9.0639 4.4863,18.2696 6.1465,27.5174 0.7989,4.4496 1.5095,8.9164 2.0969,13.399 0.4339,3.3109 0.8086,6.6386 1.0021,9.9732 0.0601,1.0356 0.1005,2.0741 0.0801,3.1112 -0.0108,0.5521 -0.004,1.1219 -0.1737,1.6474 -0.0412,0.128 -0.3131,0.2127 -0.3903,0.1026 -0.2983,-0.4253 -0.4189,-0.955 -0.5584,-1.4555 -0.2715,-0.974 -0.4814,-1.9653 -0.6719,-2.9584 -0.6257,-3.2632 -1.0691,-6.5653 -1.4522,-9.8648 -1.1035,-9.5024 -1.6981,-19.0765 -1.9495,-28.6378 -0.1205,-4.5824 -0.1511,-9.1683 -0.0622,-13.7516 0.0651,-3.3561 0.1908,-6.7187 0.485,-10.0634 0.09,-1.0235 0.1993,-2.0468 0.3637,-3.0611 0.0849,-0.5239 0.1508,-1.0684 0.3831,-1.5457 0.0516,-0.1061 0.3108,-0.0761 0.3527,0.0343 0.1933,0.5084 0.2241,1.0674 0.2722,1.6092 0.0918,1.0337 0.1289,2.0725 0.1467,3.11 0.0578,3.3618 -0.0519,6.7294 -0.2211,10.0867 -0.4797,9.5136 -1.4438,19.0147 -2.7557,28.4483 -0.6213,4.4684 -1.3313,8.9259 -2.1645,13.3599 -0.6061,3.2257 -1.2724,6.4499 -2.1179,9.6224 -0.2574,0.966 -0.5344,1.9288 -0.8712,2.87 -0.1737,0.4853 -0.3314,1.0004 -0.657,1.3999 -0.085,0.1042 -0.3514,0.009 -0.3849,-0.1215 -0.1351,-0.5256 -0.0907,-1.0848 -0.065,-1.6269 0.0484,-1.0203 0.1582,-2.0379 0.2874,-3.0512 0.4169,-3.2709 1.0156,-6.5219 1.6722,-9.7522 1.866,-9.1799 4.2371,-18.2692 6.932,-27.2391 1.2899,-4.2929 2.6671,-8.5607 4.1553,-12.7891 1.0988,-3.1222 2.2582,-6.2302 3.5654,-9.2719 0.4069,-0.9468 0.8323,-1.8873 1.3034,-2.804 0.2521,-0.4906 0.4981,-0.9988 0.8635,-1.4122 0.0782,-0.0885 0.3414,-0.0812 0.3526,0.0364 0.0471,0.4958 -0.0964,0.9943 -0.2085,1.4794 -0.2225,0.9623 -0.4999,1.9119 -0.7936,2.8548 -0.9775,3.138 -2.1165,6.229 -3.3018,9.2936 -3.4879,9.0189 -7.4247,17.8739 -11.6022,26.5929 -2.9229,6.0999 -5.9772,12.1453 -9.251,18.0651 -1.3386,2.4206 -2.7062,4.8454 -4.2321,7.1544 -0.3566,0.5396 -0.711,1.0884 -1.1512,1.5624 -0.0915,0.0985 -0.3941,0.2332 -0.3914,0.0987 0.0096,-0.4798 0.2407,-0.9319 0.4173,-1.3783 0.3758,-0.9498 0.8012,-1.8799 1.2373,-2.8036 1.4982,-3.1728 3.1297,-6.2856 4.7905,-9.3756 5.0021,-9.306 10.3427,-18.4374 15.8522,-27.4511 3.8946,-6.3716 7.8848,-12.6901 12.042,-18.894 1.7002,-2.5374 3.4207,-5.0748 5.2651,-7.5106 0.4249,-0.5612 0.8469,-1.1299 1.3383,-1.634 0.0824,-0.0845 0.3725,-0.2044 0.3428,-0.0901 -0.1365,0.5245 -0.4396,0.9925 -0.7014,1.4669 -0.5548,1.0052 -1.1458,1.9905 -1.7467,2.9688 -2.0542,3.344 -4.213,6.6259 -6.4019,9.8829 -6.544,9.7373 -13.3867,19.281 -20.4306,28.6623 -3.4795,4.634 -7.0147,9.2272 -10.6273,13.7583 -2.7159,3.4063 -5.4739,6.7851 -8.341,10.0659 -0.9075,1.0384 -1.8279,2.0667 -2.7837,3.0607 -0.521,0.5419 -1.0388,1.0982 -1.6441,1.5439 -0.1082,0.0797 -0.44,0.0916 -0.4018,-0.0374 0.1744,-0.5891 0.5566,-1.0982 0.8908,-1.6137 0.6891,-1.0628 1.4261,-2.0946 2.1754,-3.1159 2.5262,-3.4432 5.1866,-6.791 7.8817,-10.1028 7.9405,-9.7574 16.2401,-19.2325 24.7497,-28.4965 4.1551,-4.5237 8.3707,-8.993 12.6614,-13.3884 3.1997,-3.2778 6.4457,-6.5125 9.7816,-9.652 1.0511,-0.9892 2.1115,-1.97 3.2024,-2.9153 0.5863,-0.508 1.1587,-1.048 1.8268,-1.4425 0.0943,-0.0556 0.3027,0.1265 0.2447,0.2194 -0.42,0.6723 -0.9907,1.2394 -1.5231,1.8266 -0.9915,1.0935 -2.0211,2.1521 -3.0468,3.2135 -3.2116,3.3235 -6.4796,6.5919 -9.7682,9.8391 -11.1166,10.9768 -22.4546,21.7433 -34.0504,32.2132 -3.7303,3.3681 -7.4905,6.7054 -11.3148,9.9667 -1.354,1.1546 -2.7182,2.298 -4.0999,3.4193 -0.9239,0.7498 -1.8555,1.4918 -2.8161,2.1938 -0.4519,0.3302 -0.8912,0.7098 -1.4175,0.9001 -0.1265,0.0457 -0.0409,-0.2938 0.0394,-0.4017 0.4431,-0.5951 0.9714,-1.1234 1.4907,-1.6533 2.244,-2.2901 4.6239,-4.4574 7.0083,-6.5991 5.8534,-5.2579 11.8693,-10.3394 17.9685,-15.3092 8.7477,-7.1279 17.6782,-14.0552 26.8727,-20.599 3.1273,-2.2257 6.2897,-4.4131 9.5371,-6.4608 0.973,-0.6135 1.956,-1.2135 2.9656,-1.7649 0.5031,-0.2747 1.0067,-0.5862 1.5663,-0.7104 0.1153,-0.0255 0.162,0.2496 0.0897,0.3429 -0.3968,0.512 -0.907,0.9278 -1.4001,1.3477 -0.9209,0.7843 -1.8743,1.5307 -2.8379,2.2616 -3.0849,2.3398 -6.2661,4.5567 -9.4761,6.7207 -9.0092,6.0734 -18.2845,11.7693 -27.7228,17.1499 -4.45,2.5367 -8.944,4.9985 -13.4951,7.3493 -3.3003,1.7047 -6.6347,3.3624 -10.0401,4.8484 -1.0303,0.4496 -2.0697,0.8825 -3.1302,1.2551 -0.5375,0.1888 -1.0856,0.415 -1.6552,0.4264 -0.1344,0.003 -0.1887,-0.2903 -0.0997,-0.3911 0.4129,-0.4677 0.952,-0.8106 1.4689,-1.1599 0.9687,-0.6547 1.9708,-1.26 2.9815,-1.8478 3.2437,-1.8865 6.5789,-3.6214 9.9344,-5.2992 9.4187,-4.7093 19.0649,-8.9867 28.8207,-12.9472 4.5768,-1.8581 9.1863,-3.6382 13.8338,-5.3121 3.3424,-1.2039 6.7094,-2.3596 10.1189,-3.3605 1.0173,-0.2987 2.0407,-0.5815 3.0756,-0.8118 0.5095,-0.1133 1.0308,-0.2641 1.5507,-0.2178 0.1177,0.0104 0.0565,0.2823 -0.0385,0.3523 -0.4941,0.3643 -1.0646,0.6151 -1.6219,0.8724 -1.0281,0.4747 -2.0763,0.9063 -3.1299,1.3214 -3.3402,1.3158 -6.7357,2.4971 -10.1436,3.6242 -9.4159,3.1141 -18.9713,5.8365 -28.5912,8.2446 -4.4543,1.115 -8.9282,2.1569 -13.4246,3.0882 -3.2041,0.6637 -6.4266,1.2821 -9.6689,1.7296 -0.9575,0.1322 -1.9189,0.2487 -2.884,0.3046 -0.4685,0.0271 -0.963,0.0961 -1.4071,-0.056 -0.1271,-0.0435 0.0058,-0.3158 0.1212,-0.3848 0.5046,-0.3021 1.0757,-0.4814 1.634,-0.6661 1.01,-0.3341 2.0358,-0.6204 3.0652,-0.8887 3.237,-0.8436 6.5152,-1.5385 9.7984,-2.1753 9.0563,-1.7564 18.2065,-3.0843 27.3779,-4.0693 4.2776,-0.4595 8.5652,-0.8368 12.8597,-1.0956 3.1033,-0.187 6.2184,-0.3188 9.328,-0.28 0.9418,0.0117 1.8849,0.0422 2.8228,0.1286 0.4805,0.0443 0.9827,0.0676 1.424,0.263 0.108,0.0478 0.073,0.3009 -0.033,0.3529 -0.4594,0.2256 -0.9808,0.3031 -1.4847,0.3926 -0.9499,0.1688 -1.9092,0.2851 -2.869,0.3816 -3.1048,0.3122 -6.2292,0.4589 -9.3477,0.5438 -8.9206,0.2426 -17.8655,-0.0109 -26.768,-0.6049 -4.3022,-0.287 -8.5994,-0.6648 -12.8828,-1.1595 -3.1938,-0.3689 -6.3878,-0.8003 -9.5482,-1.3949 -0.9971,-0.1876 -1.9919,-0.3951 -2.9727,-0.6548 -0.5376,-0.1423 -1.0904,-0.2775 -1.5754,-0.5497 -0.1173,-0.0658 -0.2236,-0.3361 -0.1008,-0.3909 0.426,-0.19 0.9212,-0.1698 1.3874,-0.1832 0.941,-0.027 1.8836,0.009 2.8234,0.0621 3.1575,0.1783 6.3087,0.5366 9.4438,0.9439 9.2782,1.2055 18.5046,2.8926 27.6519,4.8504 4.5063,0.9645 8.9965,2.0084 13.4615,3.1492 3.3575,0.8579 6.7061,1.7705 10.0107,2.8153 1.0472,0.3311 2.0902,0.6787 3.117,1.0683 0.5613,0.213 1.1339,0.4199 1.6432,0.7378 0.1001,0.0625 0.2047,0.3229 0.0884,0.3432 -0.4869,0.0851 -0.9908,-0.0267 -1.4795,-0.1 -1.0039,-0.1506 -2,-0.353 -2.9914,-0.5708 -3.3447,-0.7347 -6.6588,-1.6217 -9.9528,-2.555 -9.7319,-2.7577 -19.3508,-5.9502 -28.8463,-9.4324 -4.6461,-1.7037 -9.2645,-3.4865 -13.8378,-5.3773 -3.4094,-1.4094 -6.803,-2.8763 -10.1188,-4.4956 -1.0392,-0.5075 -2.0714,-1.0329 -3.0747,-1.6082 -0.54,-0.3096 -1.0996,-0.6126 -1.5492,-1.0431 -0.0971,-0.093 -0.0934,-0.3927 0.0408,-0.4016 0.5492,-0.0366 1.0944,0.1464 1.6255,0.2904 1.0587,0.2871 2.1009,0.6355 3.1352,1.0007 3.4352,1.2129 6.8125,2.6004 10.1595,4.0364 9.7313,4.1754 19.2723,8.8215 28.6428,13.7504 4.5314,2.3837 9.0224,4.8464 13.4551,7.4093 3.2803,1.8967 6.5358,3.8487 9.7001,5.9345 0.9833,0.6482 1.9573,1.3128 2.8995,2.0193 0.4998,0.3748 1.0192,0.7436 1.4221,1.2211 0.0762,0.0903 0.0101,0.3552 -0.1066,0.338 -0.5688,-0.084 -1.0964,-0.3551 -1.6198,-0.5928 -1.0359,-0.4705 -2.0487,-0.9922 -3.0517,-1.5292 -3.3207,-1.7778 -6.5644,-3.7053 -9.7729,-5.677 -9.3414,-5.7406 -18.4357,-11.9003 -27.3323,-18.3063 -4.3353,-3.1217 -8.621,-6.3136 -12.8394,-9.5916 -3.1581,-2.454 -6.2842,-4.9573 -9.3094,-7.5742 -0.957,-0.8278 -1.9028,-1.6703 -2.8146,-2.5477 -0.4996,-0.4807 -1.013,-0.9595 -1.4164,-1.5235 -0.0782,-0.1094 -0.0913,-0.4332 0.0394,-0.4017 0.5436,0.1311 1.0152,0.4756 1.4901,0.7706 0.9815,0.6097 1.9319,1.2694 2.8728,1.9401 3.1887,2.273 6.2854,4.68 9.3507,7.1157 9.1379,7.2611 18.0182,14.8564 26.7545,22.5941 6.1458,5.4434 12.2187,10.9737 18.1696,16.6299 2.4325,2.312 4.8575,4.6417 7.1875,7.0578 0.5368,0.5566 1.0793,1.1111 1.5635,1.714 0.0739,0.0921 0.1917,0.4007 0.0887,0.3431 -0.5134,-0.2872 -0.9486,-0.6979 -1.3991,-1.0763 -0.9614,-0.8076 -1.9014,-1.6411 -2.8353,-2.4804 -5.3432,-4.8022 -10.536,-9.7768 -15.6865,-14.784 -2.2994,-2.2354 -4.5805,-4.4899 -6.8698,-6.7356 -2.4386,-2.3922 -4.8938,-4.7679 -7.3142,-7.1784 -6.7693,-6.7417 -13.4046,-13.6223 -19.8539,-20.6711 -2.986,-3.2635 -5.9399,-6.5647 -8.7591,-9.9742 -0.841,-1.0172 -1.6699,-2.0461 -2.4504,-3.1104 -0.3834,-0.5229 -0.8124,-1.0377 -1.0376,-1.6459 -0.0467,-0.1261 0.2769,-0.172 0.3907,-0.1006 0.6474,0.4064 1.2075,0.9407 1.7706,1.4575 1.0426,0.9569 2.0495,1.9529 3.043,2.9605 3.1588,3.2035 6.2064,6.5197 9.21,9.8684 8.3356,9.2932 16.3527,18.881 24.1332,28.6425 3.6147,4.535 7.1723,9.1164 10.653,13.7551 2.4839,3.31 4.9341,6.6508 7.2721,10.0659 0.6892,1.0067 1.3673,2.0222 2.0069,3.0612 0.3063,0.4977 0.653,0.9878 0.8287,1.5451 0.0355,0.1127 -0.2647,0.0434 -0.3526,-0.0354 -0.5436,-0.487 -1.012,-1.0535 -1.4839,-1.6103 -2.0716,-2.4442 -4.0098,-5.0113 -5.9269,-7.577 -4.7167,-6.3122 -9.2558,-12.76 -13.7018,-19.2651 -6.3117,-9.235 -12.4491,-18.6014 -18.2815,-28.1473 -1.9372,-3.1706 -3.8469,-6.3637 -5.64,-9.6185 -0.5206,-0.945 -1.0318,-1.8964 -1.4998,-2.8687 -0.2176,-0.452 -0.4887,-0.9019 -0.5547,-1.3993 -0.0177,-0.1333 0.2923,0.0239 0.3849,0.1213 0.4749,0.4994 0.8747,1.0666 1.2768,1.6262 1.7173,2.3896 3.298,4.8862 4.8557,7.3815 3.7897,6.0707 7.3964,12.2589 10.8959,18.5008 4.9546,8.8372 9.7185,17.7976 14.107,26.9305 1.468,3.0553 2.9003,6.1351 4.1919,9.2698 0.3809,0.9244 0.749,1.8556 1.0673,2.8034 0.1543,0.4595 0.3498,0.9273 0.3484,1.4121 -3e-4,0.1182 -0.2739,0.0515 -0.3526,-0.0365 -0.3972,-0.4441 -0.6987,-0.9674 -1.0034,-1.4793 -1.3368,-2.2453 -2.4984,-4.6084 -3.6272,-6.9631 -2.8066,-5.8541 -5.3604,-11.8342 -7.7636,-17.8641 -3.4943,-8.7665 -6.7007,-17.6715 -9.4041,-26.7153 -0.936,-3.131 -1.8179,-6.2885 -2.5159,-9.4821 -0.2136,-0.977 -0.4082,-1.9602 -0.5402,-2.9516 -0.0688,-0.5171 -0.1625,-1.0522 -0.0609,-1.5639 0.0262,-0.1319 0.2997,-0.1984 0.3911,-0.0998 0.3605,0.3887 0.5725,0.8965 0.7944,1.3778 0.4219,0.9154 0.7873,1.8569 1.1331,2.8036 1.1245,3.0786 2.0764,6.2243 2.9669,9.3774 2.5528,9.0379 4.6119,18.2285 6.3326,27.4593 0.8275,4.4396 1.5675,8.8968 2.19,13.3699 0.4595,3.3017 0.8602,6.6189 1.0955,9.945 0.0729,1.0308 0.1271,2.0644 0.1272,3.0977 0,0.5464 0.0169,1.1072 -0.1265,1.6343 -0.031,0.114 -0.2806,0.1904 -0.3427,0.0901 -0.2727,-0.4401 -0.3823,-0.9656 -0.5105,-1.4672 -0.2505,-0.9799 -0.4466,-1.9737 -0.6239,-2.9695 -0.5827,-3.2734 -0.9991,-6.5795 -1.3555,-9.8843 -1.0263,-9.5155 -1.5656,-19.0956 -1.753,-28.6631 -0.0898,-4.5846 -0.0895,-9.1723 0.0367,-13.7562 0.0923,-3.3566 0.2457,-6.7208 0.5838,-10.0626 0.1036,-1.0236 0.227,-2.0469 0.4129,-3.0589 0.0964,-0.525 0.1734,-1.0753 0.4323,-1.542 0.0652,-0.1175 0.3478,-0.0841 0.4016,0.0391 0.2196,0.503 0.2614,1.0696 0.3208,1.6151 0.1128,1.0348 0.164,2.0765 0.1951,3.1169 0.1006,3.3657 0.0181,6.7405 -0.1248,10.1037 -0.4044,9.5257 -1.3159,19.0425 -2.566,28.4929 -0.5921,4.4762 -1.2728,8.9419 -2.0705,13.3862 -0.5803,3.2335 -1.2204,6.4645 -2.0244,9.6507 -0.2447,0.9696 -0.5079,1.936 -0.8245,2.8844 -0.1625,0.487 -0.3089,0.9988 -0.6102,1.4144 -0.0692,0.0955 -0.3141,0.009 -0.338,-0.1065 -0.1089,-0.5261 -0.0543,-1.076 -0.0179,-1.6121 0.0691,-1.0159 0.1922,-2.0283 0.3342,-3.0366 0.4591,-3.2613 1.0841,-6.5022 1.7668,-9.7233 1.9419,-9.1633 4.3663,-18.2362 7.123,-27.1867 1.3202,-4.2868 2.7279,-8.5479 4.2517,-12.7668 1.1263,-3.1185 2.3142,-6.2235 3.6626,-9.2536 0.4209,-0.9459 0.8611,-1.8849 1.3522,-2.7963 0.2649,-0.4917 0.5246,-1.0036 0.912,-1.406 0.0932,-0.0969 0.3804,-0.0914 0.4015,0.0415 0.0779,0.4911 -0.058,0.9965 -0.1594,1.4832 -0.2007,0.9635 -0.4643,1.9138 -0.7447,2.857 -0.9335,3.1401 -2.0459,6.2312 -3.2042,9.2943 -3.4095,9.0165 -7.2909,17.865 -11.4077,26.5791 -2.8773,6.0904 -5.8875,12.1254 -9.1065,18.043 -1.3117,2.4114 -2.6514,4.8245 -4.1361,7.1349 -0.343,0.5338 -0.6834,1.0757 -1.1035,1.5511 -0.0781,0.0884 -0.3546,0.2043 -0.3437,0.0867 0.0451,-0.4867 0.277,-0.9396 0.4647,-1.391 0.3962,-0.9528 0.8352,-1.888 1.2848,-2.8169 1.5385,-3.1789 3.1968,-6.3023 4.8852,-9.4036 5.0751,-9.3221 10.4712,-18.4762 16.0414,-27.5102 3.9392,-6.3884 7.9733,-12.7245 12.1838,-18.938 1.7275,-2.5493 3.4759,-5.1007 5.3597,-7.5383 0.4387,-0.5676 0.8747,-1.1435 1.3858,-1.647 0.0958,-0.0943 0.416,-0.2346 0.3903,-0.1026 -0.1016,0.5219 -0.4036,0.986 -0.6537,1.4551 -0.5349,1.0033 -1.1121,1.9842 -1.6992,2.9578 -2.0149,3.3412 -4.1456,6.615 -6.306,9.8635 -6.4721,9.7321 -13.2574,19.2634 -20.2373,28.6371 -3.4482,4.631 -6.9522,9.2216 -10.53,13.7534 -2.6869,3.4034 -5.4148,6.7792 -8.2433,10.0664 -0.8926,1.0374 -1.7977,2.0651 -2.7347,3.0627 -0.5071,0.5399 -1.0104,1.0927 -1.5952,1.5474 -0.0932,0.0724 -0.3926,0.0784 -0.3529,-0.0329 0.2089,-0.5845 0.5938,-1.0925 0.9396,-1.608 0.7098,-1.0582 1.4611,-2.0888 2.2243,-3.1091 2.5674,-3.4322 5.2556,-6.7768 7.979,-10.0859 8.0141,-9.7375 16.3705,-19.2026 24.9427,-28.4514 4.1858,-4.5163 8.4319,-8.9779 12.7566,-13.3615 3.2282,-3.2721 6.5037,-6.4998 9.8762,-9.6235 1.066,-0.9874 2.1412,-1.9664 3.2505,-2.9051 0.6,-0.5077 1.1851,-1.0532 1.8743,-1.4314 0.1093,-0.06 0.3418,0.1422 0.2787,0.2497 -0.4075,0.6942 -0.9884,1.2726 -1.5245,1.8728 -0.993,1.1117 -2.0296,2.1841 -3.0609,3.2604 -3.2174,3.3579 -6.4969,6.6557 -9.7968,9.9324 -11.1346,11.0568 -22.4989,21.8951 -34.1112,32.4495 -3.7384,3.3977 -7.5062,6.7651 -11.3336,10.0623 -1.3576,1.1696 -2.7249,2.3283 -4.108,3.4676 -0.9275,0.764 -1.8625,1.5203 -2.8232,2.2421 -0.4558,0.3425 -0.8994,0.724 -1.4233,0.9488 -0.1084,0.0465 -0.038,-0.2595 0.0345,-0.3527 0.4476,-0.5756 0.9715,-1.0887 1.4872,-1.6041 2.2518,-2.2504 4.625,-4.388 7.0052,-6.5007 8.0883,-7.1797 16.4564,-14.058 24.971,-20.7249 6.5149,-5.1011 13.13,-10.0838 19.9024,-14.8389 3.1308,-2.1982 6.2979,-4.3587 9.5566,-6.3639 0.9754,-0.6002 1.9614,-1.1865 2.9767,-1.7168 0.5056,-0.2641 1.015,-0.5713 1.5782,-0.6626 0.1327,-0.0215 0.1805,0.2812 0.102,0.3903 -0.3831,0.5322 -0.8948,0.962 -1.3871,1.395 -0.9131,0.803 -1.8633,1.564 -2.8244,2.3088 -3.0687,2.3781 -6.2442,4.623 -9.4481,6.8143 -8.9817,6.1428 -18.2438,11.893 -27.6647,17.3359 -4.4409,2.5656 -8.9261,5.0568 -13.4663,7.4426 -3.2934,1.7306 -6.6196,3.414 -10.0126,4.942 -1.0266,0.4623 -2.062,0.9087 -3.1169,1.3023 -0.5338,0.1992 -1.0743,0.4309 -1.6425,0.4737 -0.1177,0.009 -0.1693,-0.2581 -0.0876,-0.3434 0.4267,-0.4458 0.9633,-0.7752 1.4804,-1.1119 0.9754,-0.635 1.9795,-1.226 2.992,-1.7999 3.2562,-1.8458 6.5944,-3.5521 9.9533,-5.2022 9.4341,-4.6349 19.0835,-8.8543 28.8447,-12.7506 4.578,-1.8273 9.1884,-3.5763 13.838,-5.2133 3.3405,-1.176 6.7065,-2.3046 10.1171,-3.2616 1.016,-0.2851 2.0384,-0.5539 3.0729,-0.7625 0.5083,-0.1025 1.0341,-0.2481 1.5465,-0.169 0.133,0.0205 0.0617,0.3179 -0.0438,0.4013 -0.4891,0.3867 -1.0664,0.6509 -1.6283,0.9209 -1.0285,0.4943 -2.0802,0.9407 -3.1375,1.3698 -3.3416,1.3562 -6.7458,2.5658 -10.1616,3.7204 -9.4259,3.1857 -18.9998,5.9631 -28.6368,8.434 -4.4631,1.1444 -8.9461,2.2153 -13.4512,3.1819 -3.2144,0.6896 -6.4457,1.3336 -9.6973,1.8232 -0.9624,0.1449 -1.9284,0.2746 -2.8986,0.3514 -0.4724,0.0374 -0.9636,0.1118 -1.4217,-0.009 -0.1142,-0.0301 0.0032,-0.2809 0.1065,-0.3381 0.5053,-0.2802 1.0678,-0.4467 1.6192,-0.6191 1.0067,-0.3149 2.027,-0.5869 3.0505,-0.8416 3.2307,-0.8039 6.4975,-1.4712 9.7699,-2.0807 9.0433,-1.6847 18.1741,-2.9574 27.3261,-3.8781 4.2708,-0.4295 8.5514,-0.7769 12.8382,-0.999 3.0977,-0.1604 6.2085,-0.2651 9.3104,-0.1827 0.94,0.025 1.8814,0.0694 2.8156,0.1773 0.4808,0.0555 0.9882,0.0897 1.4182,0.3119 0.1195,0.0617 0.0802,0.3368 -0.0375,0.4018 -0.4529,0.2503 -0.9809,0.3401 -1.4881,0.4415 -0.9489,0.1898 -1.9095,0.3205 -2.8708,0.4306 -3.1019,0.3551 -6.2282,0.5296 -9.3474,0.6414 -8.9116,0.3195 -17.853,0.1211 -26.7526,-0.4106 -4.2966,-0.2567 -8.5886,-0.604 -12.8684,-1.0631 -3.1865,-0.3417 -6.3725,-0.7452 -9.5297,-1.2989 -0.9926,-0.1741 -1.9832,-0.3671 -2.9621,-0.607 -0.5317,-0.1303 -1.0765,-0.2529 -1.5639,-0.5022 -0.105,-0.0537 -0.1993,-0.3026 -0.0884,-0.3431 0.4404,-0.1607 0.9313,-0.1329 1.4001,-0.1358 0.9463,-0.0058 1.893,0.0436 2.837,0.1095 3.1678,0.2211 6.3272,0.6055 9.4721,1.0386 9.2992,1.2808 18.5453,3.0213 27.7112,5.0396 4.5169,0.9947 9.0174,2.0682 13.4908,3.2436 3.3685,0.8852 6.7286,1.8256 10.039,2.91 1.0527,0.3448 2.101,0.7068 3.1305,1.1157 0.5677,0.2255 1.1484,0.4455 1.6561,0.7854 0.1117,0.0748 0.2312,0.3584 0.1007,0.3907 -0.4753,0.1176 -0.9825,0.0105 -1.468,-0.0523 -1.0004,-0.1293 -1.9931,-0.3184 -2.9808,-0.5231 -3.3394,-0.6921 -6.6474,-1.5528 -9.9342,-2.4591 -9.7245,-2.6815 -19.3339,-5.8201 -28.8228,-9.2389 -4.6435,-1.6731 -9.2597,-3.4251 -13.8338,-5.2799 -3.4074,-1.3818 -6.7986,-2.8194 -10.1202,-4.3978 -1.0385,-0.4935 -2.0704,-1.0041 -3.0773,-1.5594 -0.5381,-0.2968 -1.0934,-0.5862 -1.553,-0.9942 -0.0883,-0.0784 -0.0822,-0.3517 0.0359,-0.3526 0.5515,-0.0044 1.0901,0.1845 1.6193,0.3392 1.0555,0.3087 2.0955,0.6707 3.1279,1.0492 3.4269,1.2564 6.7992,2.6705 10.1421,4.1337 9.7138,4.2515 19.2427,8.9519 28.5966,13.943 4.5239,2.4138 9.0069,4.9069 13.4279,7.5046 3.274,1.9239 6.5235,3.904 9.6715,6.0292 0.9803,0.6618 1.9508,1.3407 2.8848,2.0663 0.4986,0.3873 1.0196,0.7697 1.4074,1.2681 0.0826,0.1061 0.0125,0.3971 -0.1213,0.3848 -0.572,-0.0525 -1.1072,-0.3185 -1.6346,-0.5461 -1.0423,-0.4498 -2.0593,-0.9582 -3.0662,-1.4824 -3.3342,-1.736 -6.5859,-3.6379 -9.8013,-5.5835 -9.3626,-5.6655 -18.4704,-11.7715 -27.3834,-18.1181 -6.1408,-4.3725 -12.199,-8.8743 -18.0811,-13.5904 -2.36,-1.8922 -4.7194,-3.8149 -6.9287,-5.8835 -0.4985,-0.4667 -1.0094,-0.9309 -1.4225,-1.4749 -0.0714,-0.094 -0.0782,-0.3872 0.0347,-0.3526 0.5409,0.166 1.011,0.513 1.4865,0.8195 0.9786,0.6307 1.9294,1.3047 2.8709,1.9893 3.1835,2.3148 6.282,4.7503 9.3505,7.2146 9.1363,7.3379 18.0258,14.9919 26.7697,22.7916 6.1554,5.4908 12.2388,11.0676 18.193,16.7764 2.442,2.3413 4.8776,4.7009 7.2078,7.1544 0.5425,0.5711 1.0911,1.1403 1.5751,1.7617 0.0826,0.1061 0.2216,0.4506 0.1012,0.3908 -0.5153,-0.2559 -0.9419,-0.6633 -1.3862,-1.0289 -0.959,-0.7891 -1.8935,-1.6084 -2.8218,-2.4335 -7.7252,-6.8662 -15.099,-14.1178 -22.4925,-21.3356 -2.4353,-2.3775 -4.8714,-4.7545 -7.307,-7.1318 z"
   style="fill:none;stroke:#000000;stroke-width:0.0705556;stroke-miterlimit:4;stroke-dasharray:none;stroke-opacity:1" />
   <path
   id="_186014128"
   class="fil0 str0"
   d="m 77.4511,70.7961 c 0.3658,0.219 0.7601,0.3964 1.0974,0.6569 0.8809,0.6804 1.7186,1.4162 2.5477,2.1587 3.0277,2.7113 5.9422,5.5544 8.8212,8.4221 8.8611,8.8263 17.4009,17.9869 25.7166,27.3272 5.9124,6.6409 11.7175,13.3862 17.3018,20.3061 2.3476,2.9091 4.6774,5.8496 6.838,8.9016 0.5485,0.7749 1.0944,1.5557 1.5594,2.3833 0.1425,0.2537 0.5394,0.8061 0.25,0.8365 -0.4255,0.0448 -0.7263,-0.4618 -1.0394,-0.7534 -0.787,-0.733 -1.5239,-1.5194 -2.2514,-2.3114 -2.6227,-2.8553 -5.1168,-5.8343 -7.5765,-8.8301 -7.4739,-9.1031 -14.6169,-18.4874 -21.5643,-27.9969 -4.8723,-6.6691 -9.6464,-13.4155 -14.2403,-20.2799 -1.905,-2.8464 -3.7924,-5.7142 -5.5502,-8.6546 -0.4375,-0.7319 -0.873,-1.4675 -1.247,-2.2338 -0.105,-0.2152 -0.4148,-0.7541 -0.1825,-0.6952 0.3937,0.0998 0.5982,0.5533 0.8569,0.8663 0.6372,0.7708 1.2358,1.5734 1.8266,2.3801 2.1038,2.8727 4.1078,5.8216 6.0825,8.7841 5.9264,8.8912 11.5833,17.9692 17.0428,27.1538 3.7928,6.3803 7.4973,12.82 10.9951,19.3674 1.4398,2.6952 2.8661,5.412 4.1255,8.1973 0.3112,0.6882 0.6218,1.3807 0.8496,2.1009 0.0642,0.2032 0.2235,0.6932 0.0173,0.6393 -0.3709,-0.097 -0.5572,-0.5323 -0.7854,-0.8403 -0.5434,-0.7334 -1.0384,-1.5025 -1.5233,-2.2759 -1.713,-2.7325 -3.2999,-5.5487 -4.8474,-8.3774 -4.6519,-8.503 -8.9496,-17.2106 -12.9761,-26.0259 -2.8336,-6.2039 -5.5392,-12.4756 -7.9724,-18.8482 -1.027,-2.6895 -2.0248,-5.4072 -2.8247,-8.1744 -0.2074,-0.7173 -0.4075,-1.4409 -0.5208,-2.1791 -0.0386,-0.2515 -0.1837,-0.7355 0.0696,-0.7604 0.3089,-0.0303 0.4597,0.4284 0.6228,0.6924 0.4198,0.6796 0.7738,1.3991 1.1154,2.1211 1.2528,2.648 2.3351,5.3838 3.3685,8.1234 2.3571,6.2484 4.4419,12.6026 6.3527,19.0007 2.0389,6.8277 3.8812,13.719 5.4563,20.6689 0.808,3.5651 1.5473,7.151 2.1286,10.7606 0.1984,1.2315 0.3741,2.4676 0.5035,3.7082 0.0814,0.7802 0.1513,1.5657 0.1284,2.3497 -0.009,0.3021 0.0653,0.7882 -0.2229,0.879 -0.2651,0.0835 -0.4147,-0.3895 -0.5344,-0.6404 -0.3277,-0.687 -0.566,-1.4151 -0.7928,-2.1418 -0.8581,-2.7487 -1.5016,-5.5744 -2.0995,-8.3892 -1.3933,-6.5597 -2.4778,-13.189 -3.3907,-19.8315 -0.986,-7.1728 -1.765,-14.3781 -2.2847,-21.6001 -0.2676,-3.7189 -0.4657,-7.4474 -0.5159,-11.1761 -0.0171,-1.2702 -0.0121,-2.5416 0.0345,-3.8111 0.0291,-0.7938 0.0697,-1.5908 0.1931,-2.3756 0.0458,-0.2917 0.0169,-0.7999 0.3108,-0.8299 0.2817,-0.0288 0.3117,0.4848 0.3815,0.7593 0.1932,0.7593 0.3027,1.5389 0.4012,2.3161 0.3708,2.9271 0.5398,5.8873 0.6636,8.8336 0.2865,6.8061 0.2736,13.6281 0.0853,20.4366 -0.2012,7.2668 -0.6087,14.5326 -1.2878,21.7708 -0.3453,3.6802 -0.7614,7.3592 -1.3369,11.0112 -0.1938,1.2299 -0.4104,2.4571 -0.6736,3.6739 -0.1624,0.751 -0.3359,1.5045 -0.6026,2.2249 -0.0964,0.2604 -0.2056,0.7524 -0.4747,0.6845 -0.2995,-0.0756 -0.2606,-0.5718 -0.2951,-0.8789 -0.0891,-0.7931 -0.0868,-1.5954 -0.0727,-2.3935 0.052,-2.9425 0.3239,-5.8894 0.6381,-8.8137 0.7177,-6.6783 1.7441,-13.3271 2.9414,-19.9352 1.2722,-7.0209 2.7492,-14.0087 4.4817,-20.9308 0.8824,-3.5254 1.8344,-7.0379 2.9277,-10.5042 0.3703,-1.174 0.7621,-2.3422 1.1932,-3.4953 0.2684,-0.718 0.5487,-1.4356 0.9044,-2.1147 0.1313,-0.2508 0.2706,-0.7239 0.5445,-0.6521 0.2703,0.0708 0.1463,0.5497 0.1286,0.8285 -0.0485,0.7613 -0.1823,1.516 -0.3259,2.2651 -0.5399,2.8162 -1.283,5.6011 -2.0635,8.3587 -1.8145,6.4107 -3.9208,12.742 -6.1829,19.0077 -2.4578,6.8082 -5.1137,13.5483 -7.9941,20.189 -1.5073,3.4748 -3.0806,6.9245 -4.7751,10.3124 -0.59,1.1796 -1.1991,2.3505 -1.8419,3.5021 -0.4148,0.7433 -0.842,1.4826 -1.3296,2.1802 -0.2013,0.288 -0.3781,0.7299 -0.728,0.7628 -0.2293,0.0215 -0.1087,-0.4627 -0.0625,-0.6884 0.1477,-0.7215 0.3908,-1.4217 0.6369,-2.1159 0.9763,-2.7536 2.1535,-5.4447 3.349,-8.1086 2.8795,-6.4167 6.0108,-12.7237 9.245,-18.9681 4.6404,-8.9588 9.5151,-17.8078 14.6798,-26.4756 1.7223,-2.8904 3.4773,-5.7675 5.3348,-8.5735 0.5234,-0.7906 1.0552,-1.5772 1.626,-2.3344 0.2342,-0.3107 0.4141,-0.7471 0.7853,-0.864 0.2117,-0.0667 -0.036,0.4501 -0.1217,0.6548 -0.309,0.7379 -0.6813,1.4486 -1.0553,2.1558 -1.5097,2.855 -3.1518,5.6449 -4.8095,8.4157 -5.5435,9.266 -11.4091,18.3476 -17.4275,27.3112 -4.6013,6.853 -9.3061,13.6414 -14.1822,20.3022 -2.2036,3.0101 -4.4382,6.0062 -6.7908,8.9022 -0.6598,0.8122 -1.3282,1.6196 -2.0428,2.384 -0.2914,0.3117 -0.5443,0.792 -0.9686,0.8373 -0.2565,0.0273 0.0638,-0.5222 0.179,-0.753 0.3986,-0.7984 0.8741,-1.5571 1.3511,-2.3112 1.9064,-3.0136 3.9709,-5.9342 6.0529,-8.828 4.9948,-6.9424 10.1989,-13.7374 15.5094,-20.4407 7.5147,-9.4857 15.2479,-18.8167 23.3124,-27.8412 2.6296,-2.9426 5.2948,-5.8646 8.0801,-8.6614 0.7639,-0.7672 1.5369,-1.5281 2.3559,-2.2362 0.3148,-0.2721 0.6328,-0.7983 1.0363,-0.6963 0.3035,0.0768 -0.1897,0.6055 -0.3618,0.867 -0.5444,0.8272 -1.1583,1.6078 -1.7761,2.3817 -2.4082,3.0168 -4.9683,5.9191 -7.5478,8.7894 -10.6166,11.8128 -21.8379,23.0689 -33.2242,34.1354 -5.6349,5.4764 -11.3002,10.9298 -17.1075,16.224 -1.1546,1.0526 -2.3176,2.0966 -3.4987,3.1193 -0.6904,0.5978 -1.383,1.1959 -2.115,1.742 -0.1925,0.1436 -0.705,0.5514 -0.6466,0.3184 0.1115,-0.4445 0.5351,-0.7464 0.8399,-1.0885 0.7373,-0.8276 1.5079,-1.6255 2.2835,-2.4173 2.7449,-2.8022 5.5715,-5.5274 8.4164,-8.2276 8.5316,-8.0976 17.2789,-15.9759 26.1759,-23.6697 6.2192,-5.3779 12.5157,-10.6753 18.9654,-15.7755 2.6918,-2.1287 5.4099,-4.2422 8.2281,-6.2026 0.7145,-0.497 1.4349,-0.9911 2.1959,-1.4138 0.2341,-0.13 0.7397,-0.4991 0.7691,-0.2329 0.0423,0.3827 -0.4256,0.6472 -0.6926,0.9244 -0.677,0.7029 -1.401,1.3602 -2.1311,2.0076 -2.6419,2.3429 -5.397,4.5647 -8.1729,6.7459 -8.5148,6.6911 -17.3239,13.024 -26.2944,19.0884 -6.4078,4.3321 -12.9127,8.5367 -19.5738,12.4702 -2.8354,1.6744 -5.7058,3.3242 -8.668,4.7662 -0.7725,0.376 -1.5527,0.7461 -2.3664,1.0217 -0.2803,0.0949 -0.7959,0.3617 -0.8844,0.0793 -0.1055,-0.3363 0.3845,-0.6012 0.6466,-0.8369 0.6791,-0.6106 1.4172,-1.1544 2.1595,-1.6865 2.7276,-1.9553 5.5858,-3.7408 8.4543,-5.48 6.527,-3.9576 13.2147,-7.6564 19.9756,-11.1978 7.1483,-3.7443 14.3939,-7.3113 21.7448,-10.6413 3.7102,-1.6808 7.4519,-3.3018 11.2453,-4.7865 1.2676,-0.4962 2.5437,-0.9729 3.833,-1.41 0.7856,-0.2663 1.5772,-0.5256 2.3883,-0.6995 0.2713,-0.0581 0.806,-0.2673 0.8326,0.009 0.0328,0.3406 -0.4776,0.4994 -0.7659,0.6835 -0.7494,0.4784 -1.5393,0.8921 -2.332,1.2943 -2.9017,1.472 -5.8931,2.779 -8.8906,4.0416 -6.7643,2.8493 -13.6374,5.4471 -20.5587,7.8883 -7.2297,2.55 -14.5243,4.9289 -21.8864,7.0684 -3.6629,1.0646 -7.3473,2.0717 -11.0631,2.9357 -1.2238,0.2846 -2.4531,0.5501 -3.6899,0.772 -0.739,0.1326 -1.4836,0.2605 -2.2339,0.2911 -0.2356,0.01 -0.7452,0.0564 -0.6866,-0.1721 0.0884,-0.3443 0.5628,-0.4444 0.8839,-0.5969 0.7805,-0.3707 1.5925,-0.6742 2.4059,-0.9656 2.908,-1.0417 5.8826,-1.913 8.8573,-2.7408 9.0159,-2.5085 18.1669,-4.5744 27.3526,-6.3557 6.4698,-1.2546 12.976,-2.3671 19.5145,-3.1995 2.7433,-0.3492 5.5071,-0.666 8.2716,-0.7835 0.7084,-0.0301 1.4213,-0.0529 2.1275,0.0116 0.2327,0.0212 0.7156,0.0165 0.6576,0.2428 -0.0774,0.3021 -0.5335,0.3358 -0.8304,0.4312 -0.744,0.2392 -1.5094,0.4097 -2.2747,0.5676 -2.774,0.5723 -5.5902,0.9684 -8.3999,1.3161 -8.6704,1.073 -17.4155,1.6516 -26.1466,1.9047 -6.3161,0.1832 -12.6472,0.1927 -18.9597,-0.1136 -2.7462,-0.1331 -5.5093,-0.3136 -8.2319,-0.71 -0.7391,-0.1076 -1.4807,-0.2283 -2.198,-0.4366 -0.2818,-0.0818 -0.7413,-0.1335 -0.7712,-0.4256 -0.0265,-0.2588 0.4361,-0.3085 0.6901,-0.3643 0.6976,-0.1534 1.4148,-0.2097 2.1276,-0.2555 2.7116,-0.1745 5.4476,-0.1212 8.1611,-0.0287 6.381,0.2174 12.755,0.7516 19.101,1.4409 8.9324,0.9704 17.8508,2.253 26.669,3.9831 2.894,0.5677 5.7894,1.181 8.6362,1.9551 0.792,0.2154 1.5832,0.4427 2.3511,0.7326 0.3102,0.1171 0.7701,0.1669 0.8697,0.4831 0.0686,0.2177 -0.4324,0.1791 -0.6605,0.1805 -0.7261,0.005 -1.4516,-0.0758 -2.1725,-0.162 -2.8434,-0.3402 -5.6713,-0.8704 -8.4784,-1.4298 -6.7179,-1.3389 -13.3861,-2.9435 -20.0098,-4.6869 -7.3133,-1.925 -14.5827,-4.03 -21.7786,-6.3569 -3.7831,-1.2233 -7.5501,-2.509 -11.2657,-3.9252 -1.2904,-0.4919 -2.5742,-1.0036 -3.8414,-1.5528 -0.8127,-0.3522 -1.6233,-0.7164 -2.3955,-1.1503 -0.3113,-0.1749 -0.8041,-0.3116 -0.8386,-0.6671 -0.0248,-0.256 0.5062,-0.151 0.762,-0.1233 0.7866,0.0852 1.561,0.2688 2.3292,0.458 3.001,0.739 5.9582,1.6925 8.8868,2.6748 6.9388,2.3279 13.785,4.9436 20.5614,7.7063 7.3875,3.0118 14.7013,6.2133 21.9058,9.6407 3.7355,1.7769 7.4443,3.6182 11.0843,5.5841 1.2474,0.6737 2.485,1.3669 3.7017,2.0946 0.7666,0.4585 1.5298,0.9282 2.2458,1.4623 0.2706,0.2018 0.7825,0.407 0.6981,0.7338 -0.0728,0.2821 -0.5922,0.0207 -0.8721,-0.0601 -0.8171,-0.236 -1.6089,-0.556 -2.3938,-0.8832 -3.0029,-1.2517 -5.9336,-2.6952 -8.8326,-4.1686 -6.7839,-3.4479 -13.4356,-7.1627 -19.9951,-11.0188 -7.1144,-4.1825 -14.1276,-8.5439 -20.9961,-13.1196 -3.5649,-2.3748 -7.0935,-4.8108 -10.5323,-7.3656 -1.1846,-0.88 -2.3565,-1.7784 -3.5011,-2.7099 -0.728,-0.5924 -1.4506,-1.1962 -2.1142,-1.86 -0.2606,-0.2607 -0.7367,-0.5423 -0.6442,-0.8993 0.0713,-0.2754 0.5813,0.0206 0.8436,0.1308 0.7918,0.3329 1.5434,0.7572 2.2876,1.1858 2.8883,1.6636 5.6727,3.524 8.4236,5.4033 6.5226,4.4561 12.878,9.1621 19.1404,13.9753 8.8677,6.8152 17.5653,13.8694 26.0082,21.2052 2.7882,2.4225 5.555,4.8781 8.2292,7.4266 0.7479,0.7127 1.4899,1.4333 2.1947,2.1888 0.2839,0.3044 0.7243,0.5717 0.7668,0.9858 0.0257,0.2504 -0.4863,-0.1541 -0.6957,-0.2938 -0.7386,-0.4928 -1.4381,-1.0429 -2.134,-1.5943 -2.7913,-2.2117 -5.4931,-4.542 -8.176,-6.883 -8.9474,-7.8074 -17.6663,-15.8842 -26.2815,-24.0554 -6.5977,-6.2577 -13.1293,-12.5877 -19.5608,-19.0163 -2.9216,-2.9204 -5.8274,-5.8599 -8.6632,-8.864 -0.801,-0.8485 -1.5978,-1.7022 -2.3661,-2.5805 -0.3156,-0.3608 -1.1079,-0.7108 -0.884,-1.1348 0.2042,-0.3867 0.7936,0.3808 1.1442,0.6421 0.8996,0.6704 1.7516,1.4038 2.5945,2.1441 3.0657,2.6924 6.0087,5.5313 8.9148,8.3938 6.5456,6.4473 12.8999,13.0918 19.1333,19.8406 6.5277,7.0676 12.9233,14.2607 19.1391,21.6045 3.1077,3.6718 6.1713,7.3847 9.1311,11.177 0.9797,1.2552 1.9449,2.5225 2.8798,3.8115 0.5615,0.7742 1.1193,1.5542 1.608,2.3763 0.1503,0.2529 0.5911,0.7999 0.2985,0.8307 -0.4134,0.0435 -0.691,-0.4696 -0.9905,-0.7578 -0.7673,-0.7384 -1.4891,-1.5238 -2.2021,-2.3147 -2.5823,-2.8643 -5.0468,-5.8393 -7.4778,-8.8322 -7.3989,-9.1086 -14.4826,-18.4823 -21.3667,-27.9846 C 100.917,90.5792 96.1874,83.8426 91.6492,76.9821 89.7726,74.145 87.9109,71.2857 86.1957,68.347 85.7714,67.62 85.3479,66.8893 84.9968,66.1242 84.9,65.9132 84.6369,65.3836 84.862,65.4407 c 0.4074,0.1034 0.6323,0.5585 0.9043,0.8788 0.6557,0.7723 1.2688,1.5805 1.8738,2.3931 2.1415,2.8764 4.1739,5.8374 6.1764,8.8116 5.9956,8.9042 11.7087,18.0062 17.2291,27.2117 3.8358,6.3964 7.5821,12.8524 11.1347,19.4109 1.4663,2.7072 2.9167,5.4343 4.2193,8.225 0.3237,0.6937 0.6454,1.3912 0.8967,2.1142 0.0717,0.2063 0.2761,0.7072 0.0649,0.652 -0.3576,-0.0936 -0.5228,-0.5275 -0.738,-0.8282 -0.5243,-0.7325 -1.0046,-1.4964 -1.4753,-2.2645 -1.6739,-2.7313 -3.2318,-5.5375 -4.7509,-8.3571 -4.5795,-8.5 -8.8191,-17.1939 -12.78,-25.9984 -2.7893,-6.2003 -5.4519,-12.4686 -7.824,-18.8414 -1.0005,-2.6878 -1.9741,-5.4069 -2.726,-8.1766 -0.1949,-0.718 -0.3831,-1.4432 -0.4716,-2.1821 -0.0306,-0.256 -0.1382,-0.7394 0.1185,-0.7646 0.3187,-0.0313 0.4962,0.4192 0.6716,0.6869 0.441,0.673 0.8091,1.3927 1.1641,2.1146 1.2957,2.6351 2.4051,5.3706 3.4648,8.1074 2.4132,6.2326 4.5409,12.5794 6.4957,18.9696 2.0844,6.814 3.9694,13.6933 5.5974,20.6309 0.8345,3.5562 1.6011,7.1328 2.2221,10.7329 0.2116,1.2267 0.4017,2.458 0.5504,3.6939 0.0932,0.7749 0.1754,1.5546 0.1752,2.335 0,0.294 0.1043,0.7759 -0.176,0.8643 -0.2595,0.0819 -0.3783,-0.4059 -0.4876,-0.6551 -0.3055,-0.6965 -0.5313,-1.4268 -0.7459,-2.1565 -0.8133,-2.7649 -1.4319,-5.5954 -2.0051,-8.4183 -1.3358,-6.5775 -2.3782,-13.2183 -3.248,-19.8725 -0.9394,-7.1859 -1.6746,-14.4031 -2.1403,-21.6356 -0.2398,-3.7259 -0.4094,-7.4614 -0.4188,-11.1956 -0.003,-1.2732 0.0164,-2.5475 0.083,-3.819 0.0417,-0.7971 0.0953,-1.5979 0.2419,-2.3826 0.0557,-0.298 0.0579,-0.8048 0.3595,-0.8355 0.2881,-0.0293 0.3505,0.4766 0.4304,0.755 0.2167,0.755 0.3392,1.5357 0.4503,2.3132 0.4174,2.9222 0.6116,5.8855 0.7612,8.8317 0.3458,6.8059 0.3756,13.6314 0.2315,20.4434 -0.1541,7.2712 -0.5174,14.5421 -1.1426,21.7883 -0.3178,3.6847 -0.706,7.368 -1.2408,11.028 -0.1801,1.2324 -0.3822,2.4624 -0.6257,3.6838 -0.1501,0.753 -0.3109,1.5077 -0.5547,2.2357 -0.0864,0.2582 -0.1633,0.7628 -0.4271,0.6962 -0.2912,-0.0735 -0.2225,-0.5672 -0.2476,-0.8665 -0.0664,-0.7907 -0.0514,-1.5874 -0.0251,-2.3805 0.0974,-2.9351 0.3937,-5.8704 0.7329,-8.786 0.7755,-6.6646 1.8429,-13.2985 3.0832,-19.8915 1.3182,-7.0076 2.8383,-13.9823 4.6235,-20.8862 0.9097,-3.5176 1.8896,-7.0225 3.0223,-10.4754 0.384,-1.1704 0.7903,-2.3347 1.2405,-3.4814 0.281,-0.7156 0.5744,-1.4314 0.9518,-2.1014 0.1425,-0.2529 0.3111,-0.7128 0.592,-0.6392 0.2769,0.0725 0.1854,0.5545 0.1761,0.8405 -0.025,0.7641 -0.1466,1.5235 -0.2782,2.2765 -0.4936,2.8231 -1.2126,5.6162 -1.9678,8.3789 -1.7548,6.4193 -3.8195,12.7575 -6.0385,19.0301 -3.0928,8.7427 -6.4975,17.3955 -10.3282,25.8425 -1.2508,2.7584 -2.5481,5.507 -3.9905,8.1713 -0.4009,0.7405 -0.8133,1.4772 -1.2807,2.1775 -0.1884,0.2823 -0.3411,0.7271 -0.6789,0.7588 -0.2302,0.0216 -0.0674,-0.4687 -0.0138,-0.6937 0.1725,-0.7231 0.4271,-1.4253 0.6858,-2.1222 1.0231,-2.7559 2.2242,-5.4525 3.4464,-8.1246 2.9381,-6.4239 6.1122,-12.7428 9.3903,-18.9993 4.7038,-8.9775 9.6357,-17.8485 14.8707,-26.5278 1.7504,-2.9023 3.534,-5.7918 5.4293,-8.6023 0.5374,-0.7969 1.0836,-1.5897 1.673,-2.3491 0.2473,-0.3186 0.4475,-0.7576 0.8323,-0.8787 0.2049,-0.0645 0.003,0.44 -0.075,0.6401 -0.2864,0.735 -0.6473,1.4398 -1.0086,2.1411 -1.4681,2.8495 -3.0854,5.6282 -4.716,8.3869 -3.9621,6.703 -8.1135,13.2967 -12.3529,19.8272 -6.0878,9.3784 -12.3645,18.6466 -18.9265,27.7004 -2.1754,3.0014 -4.381,5.988 -6.6947,8.8849 -0.6454,0.808 -1.2989,1.6113 -1.9942,2.3769 -0.2779,0.3059 -0.509,0.7876 -0.92,0.8314 -0.2622,0.0279 0.1048,-0.5246 0.2282,-0.7575 0.4222,-0.7966 0.9096,-1.5578 1.4001,-2.3143 1.9506,-3.0088 4.0411,-5.9325 6.1516,-8.8303 6.957,-9.5525 14.2729,-18.8539 21.7749,-27.9831 5.6515,-6.8771 11.4226,-13.6628 17.3916,-20.2669 2.6575,-2.9404 5.3519,-5.8611 8.1769,-8.6424 0.778,-0.7661 1.5655,-1.5259 2.404,-2.2254 0.3281,-0.2737 0.6697,-0.7895 1.084,-0.6846 0.3018,0.0764 -0.1495,0.6154 -0.3142,0.8794 -0.5212,0.8353 -1.1237,1.6184 -1.729,2.3948 -2.365,3.0332 -4.9008,5.9418 -7.4538,8.8169 -6.0458,6.8084 -12.3178,13.4196 -18.6832,19.9291 -4.7271,4.8342 -9.5302,9.5898 -14.3647,14.3162 -5.6492,5.5226 -11.3352,11.0154 -17.1502,16.3639 -1.1601,1.0671 -2.3283,2.126 -3.5124,3.1664 -0.6961,0.6116 -1.3948,1.2225 -2.1278,1.7894 -0.1987,0.1537 -0.7203,0.6097 -0.6591,0.366 0.108,-0.43 0.5302,-0.7128 0.8285,-1.0408 0.7362,-0.8096 1.5019,-1.5923 2.2726,-2.3692 2.7436,-2.7657 5.561,-5.4606 8.3972,-8.1308 8.5278,-8.0286 17.2617,-15.8463 26.1499,-23.4736 6.2142,-5.3326 12.5057,-10.5852 18.959,-15.627 2.6888,-2.1008 5.4051,-4.1891 8.2309,-6.104 0.7142,-0.484 1.4342,-0.9662 2.1993,-1.3647 0.2351,-0.1224 0.7447,-0.4474 0.7738,-0.1839 0.0436,0.3946 -0.4167,0.6821 -0.6866,0.973 -0.6702,0.7223 -1.3939,1.3945 -2.1239,2.0562 -2.6279,2.3822 -5.3818,4.6329 -8.1555,6.842 -6.2217,4.9556 -12.6153,9.6993 -19.1028,14.3004 -6.8073,4.8278 -13.7281,9.502 -20.7856,13.9569 -3.555,2.2441 -7.1487,4.4343 -10.8132,6.4956 -1.2267,0.69 -2.4644,1.3618 -3.721,1.9958 -0.7687,0.3878 -1.5444,0.7693 -2.3517,1.0686 -0.2746,0.1018 -0.7821,0.4054 -0.8697,0.1259 -0.1027,-0.3277 0.4006,-0.5665 0.6613,-0.7899 0.6892,-0.5905 1.4295,-1.1206 2.1741,-1.6395 2.7465,-1.9138 5.6084,-3.6721 8.4828,-5.3854 6.547,-3.9022 13.2443,-7.558 20.0156,-11.0549 7.1603,-3.6978 14.4158,-7.2205 21.7791,-10.4967 3.715,-1.6529 7.4623,-3.2456 11.264,-4.6894 1.2697,-0.4822 2.548,-0.9443 3.8406,-1.3613 0.7872,-0.2539 1.5813,-0.5015 2.3949,-0.6506 0.2754,-0.0505 0.8114,-0.2208 0.8382,0.0579 0.0338,0.3507 -0.4696,0.5361 -0.762,0.7324 -0.7441,0.4995 -1.5354,0.9274 -2.3293,1.343 -2.894,1.5151 -5.8895,2.85 -8.8894,4.1394 -6.7618,2.9064 -13.6405,5.5482 -20.567,8.0343 -7.2354,2.5972 -14.5373,5.02 -21.9055,7.2134 -3.6695,1.0924 -7.36,2.1277 -11.0808,3.0317 -1.2275,0.2982 -2.4603,0.5782 -3.7003,0.8198 -0.7428,0.1447 -1.4903,0.284 -2.2451,0.339 -0.2357,0.0171 -0.7571,0.1044 -0.6983,-0.1246 0.0854,-0.3325 0.5582,-0.4086 0.8713,-0.5494 0.7791,-0.3503 1.5851,-0.6399 2.3927,-0.9181 2.9035,-1.0004 5.8656,-1.8449 8.8293,-2.6462 9.0022,-2.4342 18.1298,-4.4459 27.2938,-6.1666 6.4552,-1.212 12.9471,-2.2835 19.4705,-3.0576 2.7331,-0.3243 5.4904,-0.6179 8.2438,-0.6888 0.7047,-0.0181 1.4149,-0.0293 2.1143,0.0592 0.2339,0.0296 0.7036,0.0618 0.6451,0.2902 -0.0802,0.3128 -0.5376,0.3722 -0.8423,0.4788 -0.7448,0.2606 -1.5155,0.4447 -2.2858,0.6155 -2.7761,0.6155 -5.602,1.0381 -8.4193,1.4118 -6.3493,0.8424 -12.7408,1.394 -19.134,1.7663 -6.7655,0.3941 -13.5469,0.5831 -20.3239,0.5067 -3.4628,-0.0389 -6.9292,-0.1497 -10.3831,-0.4066 -1.1777,-0.0876 -2.3546,-0.1977 -3.526,-0.3483 -0.7367,-0.0947 -1.4754,-0.2021 -2.1947,-0.3876 -0.2757,-0.0711 -0.7378,-0.0934 -0.7669,-0.3767 -0.026,-0.2533 0.4454,-0.2692 0.6958,-0.3154 0.7029,-0.1297 1.4205,-0.1733 2.1344,-0.2067 2.7206,-0.1274 5.4585,-0.0493 8.1778,0.0686 6.3933,0.2773 12.7769,0.8533 19.1331,1.5857 6.9664,0.8027 13.9131,1.8062 20.816,3.0424 3.6288,0.6499 7.2491,1.3669 10.8371,2.2154 1.2511,0.2958 2.4981,0.6121 3.7342,0.9657 0.7982,0.2284 1.5957,0.4694 2.3659,0.7796 0.3188,0.1284 0.7812,0.2023 0.8844,0.53 0.0685,0.2177 -0.4178,0.2183 -0.6457,0.2274 -0.7198,0.0288 -1.4416,-0.0408 -2.158,-0.1153 -2.8333,-0.2946 -5.6535,-0.8018 -8.4497,-1.3363 -6.705,-1.2819 -13.3598,-2.8456 -19.97,-4.5462 -9.3832,-2.414 -18.7137,-5.1085 -27.8867,-8.2318 -3.006,-1.0234 -6.0083,-2.0899 -8.9383,-3.3169 -0.8088,-0.3387 -1.6154,-0.6889 -2.3889,-1.1018 -0.3049,-0.1627 -0.7998,-0.274 -0.833,-0.6182 -0.0246,-0.2554 0.512,-0.1096 0.766,-0.0742 0.7878,0.11 1.5625,0.3054 2.3319,0.5071 3,0.7866 5.957,1.7644 8.8882,2.7735 6.9346,2.3875 13.7791,5.0467 20.5535,7.8546 7.383,3.0601 14.6926,6.3071 21.8872,9.7881 3.7319,1.8056 7.4373,3.6763 11.0665,5.6814 1.2453,0.688 2.4804,1.3961 3.6915,2.1427 0.7652,0.4717 1.5272,0.9554 2.2345,1.5103 0.2727,0.2139 0.773,0.4459 0.6863,0.7815 -0.0737,0.2856 -0.5993,0.061 -0.8848,-0.0126 -0.8224,-0.2119 -1.6184,-0.5206 -2.4069,-0.836 -3.0156,-1.2063 -5.955,-2.6265 -8.8603,-4.0748 -6.8017,-3.3906 -13.466,-7.0651 -20.0385,-10.8791 C 108.9851,102.7161 101.9597,98.3979 95.0727,93.8721 91.5013,91.525 87.9656,89.1179 84.5121,86.6 83.3245,85.7341 82.1488,84.8506 80.9973,83.9371 80.2675,83.3582 79.543,82.7684 78.87,82.1243 c -0.2589,-0.2478 -0.7468,-0.5048 -0.6569,-0.8519 0.0711,-0.2744 0.5736,0.0612 0.8316,0.1784 0.7858,0.3571 1.5345,0.7931 2.2763,1.234 2.876,1.7095 5.6556,3.5937 8.4037,5.4997 6.5101,4.5152 12.8607,9.2648 19.1186,14.1222 8.8654,6.8814 17.5647,13.9964 25.9973,21.403 2.7921,2.4524 5.563,4.9385 8.2319,7.5253 0.7507,0.7276 1.4954,1.4636 2.1979,2.2379 0.289,0.3186 0.7272,0.607 0.7712,1.0349 0.0249,0.2427 -0.484,-0.1143 -0.69,-0.2452 -0.7397,-0.4702 -1.4353,-1.0079 -2.1274,-1.5457 -2.7923,-2.1696 -5.4855,-4.4742 -8.1595,-6.7866 -6.4768,-5.6014 -12.8168,-11.3634 -19.0961,-17.1847 -9.0274,-8.3691 -17.929,-16.8804 -26.6622,-25.5564 -2.9101,-2.891 -5.8038,-5.8015 -8.6343,-8.7707 -0.7949,-0.8339 -1.5858,-1.6726 -2.3515,-2.5337 -0.3085,-0.347 -0.5796,-0.7258 -0.8695,-1.0887 z"
   style="fill:none;stroke:#000000;stroke-width:0.0705556;stroke-miterlimit:4;stroke-dasharray:none;stroke-opacity:1" />
   <path
   id="_186017872"
   class="fil0 str0"
   d="m 112.45,105.585 -1e-4,1e-4 c 2.4038,2.4381 4.8208,4.8634 7.2115,7.3142 6.0188,6.1702 11.9643,12.4156 17.653,18.8933 1.2813,1.459 2.5465,2.9328 3.7838,4.4293 0.8411,1.0172 1.67,2.0463 2.4506,3.1106 0.3835,0.523 0.8125,1.0379 1.0377,1.646 0.0467,0.1261 -0.2769,0.1722 -0.3907,0.1008 -0.6475,-0.4063 -1.2076,-0.9405 -1.7707,-1.4573 -1.0425,-0.9567 -2.0494,-1.9527 -3.0429,-2.9603 -3.1588,-3.2035 -6.2067,-6.5192 -9.2106,-9.8676 -8.336,-9.2923 -16.3533,-18.8795 -24.1344,-28.6401 -3.6148,-4.5345 -7.1724,-9.1155 -10.6536,-13.7535 -2.484,-3.3094 -4.9346,-6.6494 -7.2727,-10.064 -0.6892,-1.0065 -1.3675,-2.0216 -2.0072,-3.0604 -0.3063,-0.4973 -0.6529,-0.9872 -0.8288,-1.5443 -0.0355,-0.1126 0.2646,-0.0426 0.3525,0.0362 0.5435,0.4875 1.012,1.0541 1.4839,1.6111 2.0714,2.445 4.0099,5.0122 5.9272,7.5784 4.7166,6.3131 9.2561,12.7613 13.7024,19.267 6.3121,9.2357 12.4495,18.6029 18.2826,28.1492 1.9374,3.1708 3.8472,6.3642 5.6405,9.6192 0.5207,0.9451 1.0318,1.8966 1.4997,2.8689 0.2176,0.4521 0.4888,0.902 0.5549,1.3993 0.0177,0.1333 -0.2922,-0.0238 -0.3849,-0.1212 -0.475,-0.4993 -0.8747,-1.0666 -1.2769,-1.6262 -1.7173,-2.3899 -3.2981,-4.8866 -4.8559,-7.382 -3.7901,-6.0711 -7.3971,-12.2596 -10.8968,-18.502 -4.9551,-8.8377 -9.7198,-17.799 -14.1081,-26.9328 -1.4682,-3.0557 -2.9005,-6.1361 -4.1921,-9.2713 -0.3809,-0.9246 -0.749,-1.856 -1.0673,-2.8041 -0.1543,-0.4597 -0.3498,-0.9278 -0.3484,-1.4129 3e-4,-0.1181 0.2739,-0.0523 0.3526,0.0356 0.3974,0.4437 0.6987,0.9669 1.0035,1.4785 1.3371,2.2446 2.4989,4.6072 3.6277,6.9613 2.8068,5.8533 5.3612,11.8325 7.7647,17.8616 3.4946,8.7653 6.7017,17.6694 9.4052,26.7121 0.936,3.1306 1.8179,6.2875 2.5162,9.4806 0.2136,0.9769 0.4084,1.9597 0.5403,2.9509 0.0688,0.5169 0.1623,1.0519 0.0607,1.5633 -0.0262,0.1319 -0.2998,0.1977 -0.3911,0.0992 -0.3604,-0.3888 -0.5726,-0.8966 -0.7946,-1.3781 -0.422,-0.9154 -0.7876,-1.8571 -1.1335,-2.804 -1.1248,-3.0786 -2.0767,-6.2247 -2.9675,-9.3779 -2.5533,-9.0379 -4.6128,-18.2283 -6.3342,-27.459 -0.8279,-4.4395 -1.5677,-8.8965 -2.1906,-13.3695 -0.4597,-3.3015 -0.8608,-6.6186 -1.0961,-9.9444 -0.0729,-1.0306 -0.1271,-2.0641 -0.1272,-3.0974 0,-0.5462 -0.0168,-1.1068 0.1266,-1.6339 0.031,-0.1139 0.2806,-0.1901 0.3428,-0.0897 0.2727,0.4404 0.3825,0.9659 0.5108,1.4677 0.2506,0.98 0.4467,1.9741 0.6241,2.9699 0.5831,3.2737 0.9996,6.5804 1.3562,9.8856 1.0268,9.5165 1.5673,19.0976 1.755,28.6662 0.09,4.5852 0.0901,9.1735 -0.0359,13.758 -0.0921,3.3572 -0.2454,6.7221 -0.5834,10.0645 -0.1035,1.0239 -0.2269,2.0475 -0.4126,3.0597 -0.0964,0.5253 -0.1734,1.0758 -0.4322,1.5429 -0.0652,0.1177 -0.348,0.085 -0.4018,-0.0382 -0.2198,-0.5026 -0.2615,-1.069 -0.321,-1.6144 -0.1129,-1.0345 -0.1641,-2.0759 -0.1953,-3.1161 -0.1009,-3.3653 -0.0184,-6.7395 0.1241,-10.1023 0.404,-9.5252 1.3143,-19.0412 2.564,-28.4912 0.5918,-4.4761 1.2721,-8.9417 2.0696,-13.3859 0.5802,-3.2335 1.2199,-6.4643 2.0237,-9.6504 0.2445,-0.9694 0.5077,-1.9359 0.8242,-2.8844 0.1625,-0.487 0.3089,-0.9987 0.6102,-1.4144 0.0693,-0.0956 0.3141,-0.0091 0.338,0.1066 0.109,0.5262 0.0544,1.0761 0.018,1.6121 -0.0691,1.0159 -0.1921,2.0283 -0.334,3.0365 -0.4588,3.2612 -1.0837,6.5022 -1.7662,9.7232 -1.9414,9.1629 -4.3649,18.2356 -7.1211,27.1857 -1.3199,4.2865 -2.7274,8.5473 -4.2508,12.7659 -1.126,3.118 -2.3135,6.2228 -3.6617,9.2524 -0.4208,0.9456 -0.8608,1.8843 -1.3519,2.7954 -0.2649,0.4915 -0.5246,1.0032 -0.912,1.4052 -0.0933,0.0968 -0.3804,0.0903 -0.4014,-0.0425 -0.0778,-0.4914 0.0582,-0.997 0.1596,-1.4841 0.2006,-0.9637 0.4641,-1.9144 0.7446,-2.858 0.9334,-3.1407 2.0452,-6.2325 3.2034,-9.2962 3.4091,-9.0175 7.2896,-17.8672 11.406,-26.5823 2.8768,-6.0911 5.887,-12.1265 9.1053,-18.045 1.3115,-2.4118 2.6509,-4.8252 4.1355,-7.136 0.3429,-0.5338 0.6832,-1.0758 1.1032,-1.5515 0.0781,-0.0885 0.3544,-0.2048 0.3435,-0.0872 -0.0453,0.4867 -0.2772,0.9394 -0.4648,1.3906 -0.3962,0.9528 -0.8352,1.8878 -1.2847,2.8165 -1.5384,3.1786 -3.1966,6.3018 -4.8848,9.4029 -5.0746,9.3219 -10.4704,18.4756 -16.04,27.5094 -3.9387,6.3884 -7.9727,12.7245 -12.1826,18.9381 -1.7274,2.5494 -3.4757,5.1009 -5.3592,7.5388 -0.4386,0.5677 -0.8747,1.1436 -1.3856,1.6473 -0.0957,0.0944 -0.4158,0.2352 -0.3901,0.1032 0.1016,-0.5216 0.4036,-0.9856 0.6537,-1.4546 0.5349,-1.0031 1.112,-1.9837 1.6991,-2.9572 2.0146,-3.3408 4.1456,-6.614 6.3058,-9.862 6.4717,-9.7309 13.2568,-19.2611 20.2363,-28.6336 3.4481,-4.6303 6.9518,-9.2203 10.5292,-13.7515 2.6866,-3.4029 5.4143,-6.7783 8.2428,-10.0647 0.8926,-1.0371 1.7976,-2.0647 2.7345,-3.062 0.507,-0.5397 1.0102,-1.0923 1.5951,-1.5466 0.0932,-0.0724 0.3924,-0.0775 0.3527,0.0337 -0.2089,0.5848 -0.5938,1.093 -0.9396,1.6087 -0.7097,1.0585 -1.461,2.0892 -2.2242,3.1097 -2.5673,3.4328 -5.2554,6.7777 -7.9787,10.0874 -8.0134,9.7386 -16.3698,19.2044 -24.9417,28.454 -4.1857,4.5165 -8.4315,8.9785 -12.756,13.3624 -3.2278,3.2721 -6.5025,6.5009 -9.8757,9.6236 -1.0653,0.9862 -2.1413,1.9623 -3.2493,2.9002 -0.6016,0.5092 -1.1873,1.0565 -1.8765,1.4387 -0.1104,0.0612 -0.3625,-0.122 -0.2998,-0.2317 0.397,-0.6939 0.9708,-1.2725 1.5022,-1.8696 0.9913,-1.1138 2.0315,-2.1833 3.0631,-3.2599 5.2527,-5.4816 10.653,-10.8252 16.0853,-16.1282 9.1245,-8.9077 18.3874,-17.6795 27.8245,-26.2557 3.7389,-3.3979 7.507,-6.7654 11.335,-10.0628 1.3577,-1.1696 2.7253,-2.3284 4.1087,-3.4678 0.9277,-0.764 1.863,-1.5202 2.8239,-2.2421 0.456,-0.3426 0.8999,-0.7242 1.4241,-0.9489 0.1085,-0.0465 0.0386,0.2596 -0.0338,0.3528 -0.4472,0.5757 -0.971,1.089 -1.4864,1.6043 -2.2511,2.2507 -4.624,4.3882 -7.0035,6.5011 -8.0867,7.1804 -16.4537,14.0591 -24.9673,20.7261 -6.5141,5.1015 -13.1283,10.0842 -19.8999,14.8397 -3.1303,2.1983 -6.2971,4.3589 -9.5553,6.3643 -0.9753,0.6002 -1.9611,1.1865 -2.976,1.7168 -0.5054,0.2641 -1.0146,0.5714 -1.5776,0.6626 -0.1327,0.0215 -0.1803,-0.2814 -0.1017,-0.3905 0.3832,-0.5322 0.895,-0.9621 1.3875,-1.3952 0.9132,-0.803 1.8635,-1.5641 2.8247,-2.3089 3.0691,-2.3781 6.2444,-4.6234 9.4485,-6.8149 8.9817,-6.1432 18.2434,-11.8942 27.6643,-17.3376 4.4407,-2.5658 8.926,-5.057 13.4659,-7.4432 3.2931,-1.7308 6.6192,-3.4143 10.0119,-4.9425 1.0265,-0.4623 2.0616,-0.9087 3.1165,-1.3023 0.5337,-0.1991 1.0741,-0.4309 1.6422,-0.4736 0.1177,-0.0088 0.1687,0.2582 0.0871,0.3434 -0.4269,0.4459 -0.9635,0.7755 -1.4808,1.1122 -0.9756,0.6351 -1.98,1.2261 -2.9926,1.8001 -3.2565,1.8462 -6.5951,3.5527 -9.9544,5.2029 -9.4354,4.6352 -19.0852,8.8559 -28.8477,12.7526 -4.5786,1.8274 -9.1896,3.5769 -13.8398,5.2141 -3.341,1.1763 -6.7079,2.305 -10.1192,3.2622 -1.0164,0.2852 -2.039,0.5541 -3.0738,0.7626 -0.5086,0.1025 -1.0347,0.248 -1.5474,0.1689 -0.1328,-0.0205 -0.0626,-0.3178 0.0429,-0.4013 0.4887,-0.3869 1.0657,-0.651 1.6275,-0.9211 1.0282,-0.4944 2.0797,-0.9408 3.1368,-1.37 3.3413,-1.3565 6.7448,-2.5665 10.1603,-3.7212 9.4252,-3.1867 18.9987,-5.9646 28.6352,-8.4361 4.463,-1.1446 8.9458,-2.2159 13.4508,-3.1827 3.2143,-0.6898 6.4454,-1.3341 9.6969,-1.8239 0.9623,-0.145 1.9282,-0.2748 2.8984,-0.3517 0.4724,-0.0374 0.9635,-0.1117 1.4218,0.0092 0.1142,0.0301 -0.003,0.2808 -0.1066,0.3381 -0.5053,0.2803 -1.0678,0.4466 -1.6192,0.6191 -2.4188,0.7565 -4.913,1.3124 -7.3897,1.8399 -6.1404,1.3078 -12.3426,2.346 -18.5569,3.232 -8.9631,1.2781 -17.9918,2.262 -27.0354,2.7315 -3.0971,0.1607 -6.2075,0.2656 -9.3089,0.1834 -0.9398,-0.0249 -1.881,-0.0692 -2.8149,-0.177 -0.4804,-0.0554 -0.9877,-0.0894 -1.4172,-0.3117 -0.1194,-0.0618 -0.0791,-0.3368 0.0386,-0.4017 0.4531,-0.2501 0.9813,-0.34 1.4889,-0.4415 0.9492,-0.1898 1.9102,-0.3206 2.8718,-0.4307 3.1026,-0.3553 6.2296,-0.53 9.3494,-0.642 8.9125,-0.32 17.8551,-0.1226 26.7556,0.4087 4.297,0.2565 8.5895,0.6034 12.8697,1.0621 3.1867,0.3416 6.3733,0.7448 9.5308,1.2983 0.9928,0.174 1.9836,0.367 2.9627,0.6067 0.5318,0.1302 1.0768,0.2527 1.5644,0.5019 0.1052,0.0537 0.1999,0.3025 0.089,0.343 -0.4404,0.1608 -0.9312,0.1329 -1.3999,0.1357 -0.9461,0.006 -1.8926,-0.0437 -2.8365,-0.1095 -3.1675,-0.2209 -6.3267,-0.6052 -9.4714,-1.0381 -9.2989,-1.2804 -18.5448,-3.0204 -27.7105,-5.0382 -4.5169,-0.9943 -9.0176,-2.0673 -13.4909,-3.2427 -3.3686,-0.885 -6.7288,-1.8253 -10.0393,-2.9094 -1.0528,-0.3447 -2.1012,-0.7067 -3.1308,-1.1154 -0.5678,-0.2254 -1.1486,-0.4454 -1.6565,-0.7851 -0.1117,-0.0747 -0.2318,-0.3584 -0.1012,-0.3907 0.475,-0.1176 0.982,-0.0103 1.4673,0.0524 1.0002,0.1294 1.9927,0.3185 2.9801,0.5231 3.3389,0.6919 6.6464,1.5525 9.9327,2.4588 9.7233,2.6815 19.3315,5.8194 28.8193,9.2378 4.6429,1.6729 9.2585,3.4245 13.8319,5.2791 3.4069,1.3815 6.7975,2.8191 10.1185,4.3973 1.0383,0.4934 2.0699,1.0038 3.0766,1.5591 0.538,0.2968 1.093,0.5862 1.5522,0.9943 0.0883,0.0784 0.0813,0.3515 -0.0367,0.3524 -0.5516,0.004 -1.0905,-0.1843 -1.62,-0.3391 -1.0557,-0.3087 -2.0959,-0.6709 -3.1286,-1.0494 -3.4274,-1.2561 -6.7999,-2.6703 -10.1434,-4.1333 -9.7147,-4.251 -19.2444,-8.9512 -28.5992,-13.942 -4.5243,-2.4136 -9.0076,-4.9065 -13.4289,-7.5042 -3.2741,-1.9238 -6.524,-3.9035 -9.6722,-6.0285 -0.9803,-0.6617 -1.9508,-1.3407 -2.885,-2.0663 -0.4986,-0.3873 -1.0197,-0.7696 -1.4075,-1.268 -0.0826,-0.1061 -0.0124,-0.3971 0.1215,-0.3849 0.572,0.0524 1.1073,0.3184 1.6346,0.5459 1.0425,0.4497 2.0595,0.9583 3.0664,1.4825 3.3344,1.7358 6.5864,3.6374 9.8019,5.5829 9.3635,5.6651 18.4713,11.7713 27.3854,18.1172 6.1415,4.3722 12.2005,8.8739 18.0833,13.5897 2.3605,1.8922 4.7204,3.8148 6.9301,5.8834 0.4988,0.4669 1.0099,0.9311 1.4234,1.4749 0.0715,0.094 0.079,0.3873 -0.0338,0.3527 -0.5406,-0.166 -1.0104,-0.513 -1.4857,-0.8194 -0.9782,-0.6307 -1.9287,-1.3045 -2.87,-1.9891 -3.1828,-2.3148 -6.2809,-4.75 -9.3488,-7.2141 -9.1351,-7.3375 -18.0237,-14.9908 -26.7664,-22.7901 C 94.8556,89.792 88.7728,84.2154 82.8195,78.5068 80.3779,76.1656 77.9426,73.8061 75.613,71.3525 c -0.5423,-0.5711 -1.0908,-1.1403 -1.5744,-1.7619 -0.0825,-0.106 -0.2209,-0.4505 -0.1004,-0.3908 0.5156,0.2556 0.9424,0.6632 1.3868,1.0287 0.9593,0.7889 1.8938,1.608 2.8222,2.433 3.1989,2.8428 6.3278,5.7658 9.4406,8.7023 4.4123,4.1624 8.7999,8.356 13.1369,12.5968 2.4179,2.3643 4.8165,4.7485 7.2106,7.1369 8.5445,8.5241 17.0222,17.133 25.0489,26.1505 1.2955,1.4554 2.5755,2.9253 3.8307,4.4155 0.8544,1.0144 1.697,2.0401 2.4977,3.0973 0.3945,0.5209 0.8263,1.033 1.0849,1.6332 0.0467,0.1085 -0.245,0.1541 -0.3431,0.0886 -0.6275,-0.4193 -1.1733,-0.9519 -1.7228,-1.4691 -1.0239,-0.9637 -2.0158,-1.9617 -2.9949,-2.971 -3.1207,-3.2167 -6.1386,-6.5356 -9.1136,-9.8869 -8.2638,-9.3092 -16.2214,-18.8987 -23.938,-28.6653 -3.5834,-4.5354 -7.1095,-9.1172 -10.5548,-13.7585 -2.4547,-3.3067 -4.8767,-6.6444 -7.1738,-10.063 -0.675,-1.0045 -1.3387,-2.018 -1.9579,-3.058 -0.2943,-0.4944 -0.6391,-0.9823 -0.7799,-1.5403 -0.0329,-0.1305 0.2994,-0.0464 0.4015,0.0411 0.5638,0.4834 1.0466,1.0557 1.5325,1.6172 0.8808,1.0179 1.7291,2.0642 2.5655,3.1187 2.623,3.3067 5.1469,6.694 7.6327,10.1045 6.7907,9.3167 13.308,18.839 19.6205,28.4855 2.8956,4.4249 5.7432,8.8824 8.5216,13.3819 1.965,3.1822 3.9018,6.3864 5.734,9.6473 0.5342,0.9508 1.059,1.9079 1.5466,2.8834 0.229,0.4582 0.5005,0.912 0.6017,1.4141 0.0233,0.1158 -0.2585,-0.0193 -0.3381,-0.1065 -0.4555,-0.499 -0.8414,-1.0587 -1.23,-1.6115 -1.6782,-2.3871 -3.2311,-4.8697 -4.7617,-7.3528 -5.1462,-8.349 -9.9825,-16.8993 -14.6186,-25.5408 -3.4995,-6.5231 -6.8874,-13.1124 -10.0512,-19.8054 -1.4405,-3.0478 -2.8462,-6.121 -4.0952,-9.2531 -0.3675,-0.9215 -0.7217,-1.85 -1.0185,-2.7966 -0.1434,-0.4574 -0.3352,-0.9287 -0.2996,-1.4067 0.01,-0.1342 0.3088,-0.0567 0.4016,0.0405 0.4184,0.4382 0.7341,0.9666 1.0524,1.4821 0.5755,0.9321 1.1094,1.8901 1.6261,2.856 1.6268,3.0412 3.1189,6.1572 4.5537,9.2928 3.978,8.6929 7.5465,17.5839 10.7774,26.5802 1.5184,4.2282 2.9558,8.4868 4.2778,12.7806 0.9623,3.1257 1.8708,6.2763 2.6122,9.4626 0.2265,0.9735 0.4349,1.9528 0.5881,2.9406 0.0795,0.5125 0.1822,1.0387 0.1086,1.552 -0.0167,0.117 -0.2679,0.1777 -0.3436,0.0871 -0.3376,-0.4036 -0.5368,-0.9084 -0.747,-1.3909 -0.4019,-0.9227 -0.7534,-1.8675 -1.0861,-2.8174 -1.0835,-3.0932 -2.0085,-6.2453 -2.8728,-9.4058 -2.4791,-9.0643 -4.4851,-18.2701 -6.145,-27.5182 -0.7986,-4.4497 -1.5091,-8.9164 -2.0961,-13.3991 -0.4336,-3.3108 -0.8083,-6.6383 -1.0015,-9.9728 -0.06,-1.0356 -0.1003,-2.0739 -0.0798,-3.111 0.0109,-0.5518 0.004,-1.1216 0.174,-1.6469 0.0412,-0.1279 0.3132,-0.2124 0.3904,-0.1022 0.2983,0.4257 0.4189,0.9554 0.5583,1.456 0.2714,0.9743 0.4814,1.9658 0.6718,2.9591 0.6257,3.2638 1.0692,6.5663 1.4522,9.8663 1.1029,9.5036 1.697,19.0789 1.9481,28.6414 0.1203,4.583 0.151,9.1694 0.0617,13.7533 -0.0653,3.3567 -0.1912,6.7199 -0.4856,10.0652 -0.0901,1.0239 -0.1994,2.0474 -0.3639,3.0619 -0.085,0.5242 -0.1511,1.069 -0.3833,1.5465 -0.0516,0.1062 -0.3108,0.0768 -0.3527,-0.0335 -0.1934,-0.5082 -0.2242,-1.067 -0.2722,-1.6086 -0.0917,-1.0334 -0.1287,-2.0719 -0.1465,-3.1093 -0.0578,-3.3613 0.0518,-6.7285 0.2212,-10.0852 0.4802,-9.5128 1.4447,-19.0131 2.7569,-28.4459 0.6216,-4.4682 1.3315,-8.9254 2.1649,-13.3591 0.6062,-3.2255 1.2726,-6.4496 2.1182,-9.6219 0.2575,-0.9659 0.5345,-1.9286 0.8714,-2.8698 0.1737,-0.4851 0.3316,-1.0002 0.6572,-1.3997 0.0849,-0.1042 0.3513,-0.0088 0.3848,0.1214 0.1352,0.5256 0.0906,1.0848 0.0649,1.6268 -0.0484,1.0204 -0.1582,2.038 -0.2874,3.0512 -0.4171,3.2706 -1.0155,6.5217 -1.6725,9.7516 -1.8668,9.1791 -4.2375,18.2684 -6.9333,27.2374 -1.2901,4.2925 -2.6676,8.5598 -4.1557,12.7879 -1.0988,3.1217 -2.2585,6.2295 -3.5658,9.2706 -0.407,0.9466 -0.8324,1.8868 -1.3035,2.8031 -0.2522,0.4905 -0.498,0.9985 -0.8634,1.4115 -0.0782,0.0884 -0.3415,0.0804 -0.3526,-0.0373 -0.047,-0.496 0.0965,-0.9948 0.2087,-1.4802 0.2225,-0.9626 0.4999,-1.9125 0.7937,-2.8557 0.9777,-3.1386 2.117,-6.2301 3.3024,-9.2953 3.4884,-9.0199 7.4254,-17.8763 11.6035,-26.5963 2.9229,-6.1009 5.978,-12.1467 9.2518,-18.0675 1.3387,-2.421 2.7064,-4.8464 4.2322,-7.1559 0.3566,-0.5397 0.711,-1.0887 1.1511,-1.5629 0.0914,-0.0985 0.394,-0.2338 0.3913,-0.0992 -0.01,0.4798 -0.241,0.9317 -0.4175,1.3778 -0.3759,0.9498 -0.8013,1.8799 -1.2375,2.8034 -1.4985,3.1726 -3.1302,6.2852 -4.7912,9.3751 -5.0029,9.306 -10.344,18.4375 -15.8539,27.4513 -3.8948,6.3718 -7.8856,12.6904 -12.0428,18.8947 -1.7004,2.5377 -3.4211,5.075 -5.2653,7.5113 -0.425,0.5614 -0.8469,1.13 -1.3383,1.6342 -0.0824,0.0845 -0.3725,0.2048 -0.3427,0.0905 0.1367,-0.5243 0.4396,-0.9921 0.7015,-1.4664 0.5549,-1.005 1.146,-1.9902 1.7471,-2.9683 2.0545,-3.3436 4.2136,-6.6251 6.4027,-9.8817 6.5449,-9.7361 13.3877,-19.2792 20.4325,-28.6592 3.4798,-4.6333 7.0152,-9.2261 10.6282,-13.7565 2.7161,-3.4058 5.4742,-6.784 8.3416,-10.0641 0.9074,-1.0381 1.8278,-2.0661 2.7837,-3.0598 0.521,-0.5416 1.0386,-1.0977 1.6441,-1.543 0.1083,-0.0796 0.4399,-0.0907 0.4018,0.0383 -0.1744,0.5894 -0.5567,1.0987 -0.8909,1.6144 -0.6891,1.0632 -1.4264,2.0952 -2.1758,3.1167 -2.5263,3.4437 -5.1873,6.7918 -7.8825,10.1041 -7.9407,9.7585 -16.2416,19.2339 -24.7518,28.4985 -4.1554,4.5238 -8.3712,8.9933 -12.6622,13.3888 -3.1998,3.2777 -6.4452,6.5134 -9.7821,9.6519 -1.0506,0.9881 -2.1117,1.9662 -3.2017,2.9108 -0.5877,0.5093 -1.1606,1.0511 -1.8289,1.4489 -0.0952,0.0567 -0.3212,-0.1087 -0.2634,-0.2033 0.411,-0.6719 0.9751,-1.2391 1.5032,-1.8235 0.9898,-1.0952 2.0227,-2.1513 3.0486,-3.2129 5.2457,-5.4281 10.6272,-10.7281 16.0427,-15.9861 9.1089,-8.844 18.3526,-17.5555 27.7767,-26.0634 3.7306,-3.3679 7.4911,-6.7051 11.3159,-9.9659 1.3542,-1.1545 2.7185,-2.2977 4.1005,-3.419 0.924,-0.7497 1.8558,-1.4914 2.8168,-2.1933 0.4521,-0.3302 0.8917,-0.7099 1.4183,-0.9 0.1265,-0.0456 0.0418,0.2938 -0.0384,0.4016 -0.4428,0.5952 -0.9709,1.1234 -1.4899,1.6533 -2.2431,2.2903 -4.6226,4.4573 -7.0064,6.5989 -5.8522,5.2577 -11.867,10.3389 -17.9655,15.308 -8.7469,7.1271 -17.6761,14.0541 -26.8698,20.5971 -3.1269,2.2254 -6.2888,4.4128 -9.536,6.46 -0.9729,0.6134 -1.9559,1.2132 -2.9652,1.7645 -0.5029,0.2747 -1.0063,0.5862 -1.5658,0.7103 -0.1152,0.0255 -0.1617,-0.2496 -0.0893,-0.343 0.397,-0.5119 0.9073,-0.9277 1.4005,-1.3476 0.921,-0.7842 1.8744,-1.5307 2.8382,-2.2616 3.0852,-2.3396 6.2665,-4.5563 9.4767,-6.7203 9.0092,-6.073 18.2848,-11.7686 27.7233,-17.1485 4.4499,-2.5365 8.944,-4.998 13.4951,-7.3485 3.3003,-1.7045 6.6344,-3.3619 10.0398,-4.8477 1.0301,-0.4494 2.0694,-0.8824 3.1298,-1.2549 0.5373,-0.1887 1.0854,-0.4149 1.6548,-0.4262 0.1345,-0.0026 0.1883,0.2904 0.0993,0.3912 -0.4132,0.4676 -0.9525,0.8105 -1.4695,1.1598 -0.969,0.6548 -1.9712,1.2603 -2.9821,1.8481 -3.2441,1.8864 -6.58,3.6212 -9.9359,5.2988 -9.42,4.7087 -19.0672,8.9857 -28.8241,12.946 -4.5774,1.858 -9.1876,3.6378 -13.8357,5.3115 -3.343,1.2038 -6.7106,2.3593 -10.1206,3.3599 -1.0176,0.2986 -2.0413,0.5814 -3.0766,0.8116 -0.5097,0.1133 -1.0313,0.2638 -1.5515,0.2176 -0.1176,-0.0104 -0.0572,-0.2822 0.0378,-0.3523 0.4936,-0.3645 1.0641,-0.6153 1.6211,-0.8725 1.0279,-0.4747 2.0759,-0.9062 3.1292,-1.3213 3.3397,-1.316 6.7348,-2.497 10.1424,-3.624 9.415,-3.1141 18.9697,-5.8355 28.5888,-8.2435 4.4539,-1.1149 8.9275,-2.1565 13.4236,-3.0875 3.204,-0.6635 6.4261,-1.2818 9.6682,-1.7293 0.9575,-0.1321 1.9189,-0.2489 2.8839,-0.3047 0.4684,-0.0271 0.963,-0.0961 1.4069,0.0562 0.1272,0.0436 -0.006,0.3158 -0.1213,0.3849 -0.5045,0.3021 -1.0755,0.4813 -1.6338,0.6659 -1.0099,0.334 -2.0358,0.6204 -3.0651,0.8886 -3.2368,0.8434 -6.5147,1.5382 -9.7977,2.1749 -9.0555,1.7563 -18.2051,3.0836 -27.3757,4.0682 -4.2771,0.4593 -8.5643,0.8366 -12.8584,1.0954 -3.1028,0.1868 -6.2173,0.3183 -9.3264,0.2795 -0.9415,-0.0117 -1.8845,-0.0422 -2.8221,-0.1286 -0.4803,-0.0443 -0.9822,-0.0675 -1.4232,-0.263 -0.108,-0.0478 -0.0723,-0.3009 0.0338,-0.3529 0.4598,-0.2255 0.9814,-0.3026 1.4856,-0.3922 0.9502,-0.1688 1.9099,-0.2852 2.87,-0.3817 3.1053,-0.3122 6.2303,-0.4585 9.3493,-0.5431 8.9217,-0.2422 17.8678,0.0114 26.7713,0.6062 4.3027,0.2874 8.6005,0.6651 12.8844,1.16 3.1942,0.3691 6.3888,0.8005 9.5497,1.3952 0.9973,0.1876 1.9923,0.3952 2.9734,0.6549 0.5378,0.1423 1.0907,0.2776 1.5759,0.5496 0.1174,0.0658 0.2242,0.3359 0.1014,0.3907 -0.4258,0.19 -0.9208,0.1697 -1.3869,0.183 -0.9409,0.0269 -1.8834,-0.009 -2.8231,-0.0624 -3.1574,-0.1785 -6.3084,-0.5372 -9.4434,-0.9445 -6.8199,-0.8861 -13.6069,-2.0452 -20.3565,-3.36 -6.9592,-1.3556 -13.8881,-2.8862 -20.7576,-4.642 C 88.3411,98.3027 84.9922,97.3903 81.6874,96.3453 80.6401,96.0141 79.5971,95.6665 78.57,95.2769 78.0086,95.064 77.4359,94.857 76.9264,94.5391 76.8263,94.4767 76.7211,94.2163 76.8375,94.196 c 0.4868,-0.085 0.9905,0.0269 1.4791,0.1002 1.0037,0.1507 1.9996,0.3534 2.9908,0.5712 3.3443,0.7349 6.658,1.6221 9.9517,2.5558 9.7309,2.7582 19.3486,5.9517 28.8431,9.4343 4.6455,1.7041 9.2632,3.4871 13.8359,5.3781 3.4089,1.4096 6.8019,2.8764 10.1169,4.4961 1.039,0.5076 2.0709,1.033 3.074,1.6084 0.5398,0.3096 1.0992,0.6126 1.5483,1.0432 0.0971,0.093 0.0924,0.3924 -0.0417,0.4013 -0.5494,0.0364 -1.0949,-0.1465 -1.6262,-0.2906 -1.059,-0.2872 -2.1014,-0.6355 -3.136,-1.0008 -3.4357,-1.2129 -6.8135,-2.6009 -10.1609,-4.0372 -9.7318,-4.1759 -19.2739,-8.8225 -28.6446,-13.7525 -4.5316,-2.3839 -9.0228,-4.8471 -13.4556,-7.4103 -3.2805,-1.8969 -6.5361,-3.8491 -9.7005,-5.9352 -0.9833,-0.6482 -1.9572,-1.3128 -2.8995,-2.0194 -0.4998,-0.3748 -1.0193,-0.7437 -1.4222,-1.2213 -0.0761,-0.0902 -0.0101,-0.3551 0.1067,-0.3379 0.5688,0.084 1.0964,0.3552 1.6198,0.5929 1.036,0.4706 2.0487,0.9923 3.0517,1.5293 3.3208,1.778 6.5647,3.7057 9.7733,5.6776 9.3417,5.7414 18.4364,11.9019 27.3335,18.3084 4.3356,3.122 8.6216,6.3143 12.8404,9.5926 3.1585,2.4544 6.2852,4.9579 9.3109,7.5751 0.9572,0.828 1.9031,1.6706 2.8153,2.548 0.4998,0.4808 1.0136,0.9596 1.4174,1.5235 0.0783,0.1094 0.0922,0.4333 -0.0385,0.4018 -0.5432,-0.1311 -1.0146,-0.4755 -1.4891,-0.7704 -0.9811,-0.6098 -1.9313,-1.2695 -2.8718,-1.9402 -3.188,-2.2734 -6.2842,-4.6806 -9.3489,-7.1164 -9.1368,-7.2618 -18.016,-14.8577 -26.7513,-22.5959 C 99.2142,93.662 93.142,88.131 87.1917,82.4744 84.7595,80.1621 82.3351,77.8322 80.0054,75.4159 79.4687,74.8593 78.9263,74.3047 78.4423,73.7017 78.3684,73.6096 78.251,73.3008 78.3541,73.3584 c 0.5138,0.2871 0.9491,0.6978 1.3998,1.0762 0.9618,0.8076 1.9019,1.6412 2.8359,2.4806 5.3464,4.8047 10.5397,9.7864 15.7155,14.7732 2.315,2.2305 4.6312,4.4603 6.9243,6.7132 2.4218,2.3793 4.8136,4.789 7.2204,7.1834 z"
   style="fill:none;stroke:#000000;stroke-width:0.0705556;stroke-miterlimit:4;stroke-dasharray:none;stroke-opacity:1" />
   <path
   id="_186016912"
   class="fil0 str0"
   d="m 147.449,140.373 -2e-4,2e-4 c -0.3628,-0.1864 -0.7618,-0.3151 -1.0884,-0.5593 -0.9115,-0.6816 -1.7573,-1.4481 -2.6077,-2.2046 -3.0551,-2.7178 -6.0094,-5.5563 -8.9223,-8.4251 -6.5459,-6.447 -12.9005,-13.0913 -19.1343,-19.8397 -6.5282,-7.0672 -12.9241,-14.2603 -19.1402,-21.6038 -3.1078,-3.6715 -6.1714,-7.3842 -9.1315,-11.1763 -0.9796,-1.255 -1.945,-2.5222 -2.8799,-3.8111 -0.5614,-0.774 -1.1193,-1.5539 -1.6081,-2.3758 -0.1503,-0.2527 -0.5912,-0.7999 -0.2986,-0.8302 0.4137,-0.0428 0.6912,0.4701 0.9907,0.7585 0.7673,0.7387 1.4892,1.5243 2.2023,2.3154 2.5826,2.8648 5.047,5.8405 7.4782,8.8339 7.3991,9.11 14.4832,18.4848 21.368,27.9882 4.8261,6.6616 9.556,13.3991 14.0942,20.2606 1.8767,2.8376 3.7385,5.6972 5.4537,8.6364 0.4244,0.7273 0.8481,1.4581 1.1991,2.2234 0.0968,0.2112 0.3599,0.7408 0.1346,0.684 -0.4074,-0.1029 -0.6325,-0.5581 -0.9045,-0.8784 -0.6558,-0.772 -1.269,-1.5802 -1.874,-2.3927 -2.1417,-2.8762 -4.1743,-5.8372 -6.1769,-8.8112 -5.9961,-8.9044 -11.7095,-18.0063 -17.2307,-27.2118 -3.8363,-6.3965 -7.5831,-12.8527 -11.1359,-19.4115 -1.4665,-2.7073 -2.9167,-5.4348 -4.2195,-8.2256 -0.3238,-0.6937 -0.6455,-1.3914 -0.8968,-2.1146 -0.0717,-0.2063 -0.2761,-0.7075 -0.0646,-0.6524 0.3577,0.0932 0.5229,0.5273 0.738,0.8278 0.5244,0.7324 1.0048,1.4962 1.4755,2.264 1.6743,2.7307 3.2324,5.5368 4.7517,8.356 4.5805,8.4988 8.8204,17.192 12.7819,25.9955 2.7897,6.1994 5.4524,12.4668 7.8253,18.8386 1.0006,2.6871 1.9744,5.4057 2.7265,8.1747 0.195,0.7178 0.3832,1.4427 0.4716,2.1813 0.0306,0.2558 0.1377,0.7391 -0.1186,0.7637 -0.3189,0.0306 -0.4962,-0.4198 -0.6717,-0.6878 -0.4409,-0.6732 -0.8092,-1.3931 -1.1642,-2.1153 -1.2958,-2.6357 -2.4056,-5.3715 -3.4657,-8.1088 -2.4138,-6.233 -4.542,-12.5804 -6.4971,-18.9711 -2.0847,-6.8144 -3.9706,-13.694 -5.599,-20.632 -0.8347,-3.5563 -1.6014,-7.1331 -2.2228,-10.7333 -0.2117,-1.2266 -0.4018,-2.4579 -0.5506,-3.6938 -0.0933,-0.7749 -0.1755,-1.5547 -0.1754,-2.3352 0,-0.294 -0.1044,-0.776 0.176,-0.8643 0.2596,-0.0818 0.3784,0.4059 0.4877,0.6551 0.3056,0.6966 0.5313,1.4269 0.7459,2.1565 0.8135,2.7651 1.4323,5.5954 2.0057,8.4184 1.3361,6.5778 2.3791,13.2188 3.2494,19.8732 0.94,7.1863 1.6754,14.4039 2.1418,21.6368 0.2402,3.7263 0.41,7.4623 0.4199,11.1969 0.003,1.2735 -0.0164,2.5481 -0.0829,3.8198 -0.0417,0.7974 -0.0952,1.5985 -0.2417,2.3835 -0.0556,0.2982 -0.0576,0.8049 -0.3594,0.8364 -0.2878,0.03 -0.3506,-0.4759 -0.4304,-0.754 -0.2167,-0.7546 -0.3391,-1.535 -0.4502,-2.3123 -0.4174,-2.9217 -0.6119,-5.8841 -0.7617,-8.8298 -0.3462,-6.805 -0.3764,-13.6297 -0.2326,-20.4409 0.1535,-7.2705 0.5166,-14.5405 1.1411,-21.7861 0.3176,-3.6843 0.7054,-7.3671 1.24,-11.0268 0.18,-1.2321 0.3819,-2.462 0.6253,-3.6833 0.15,-0.7527 0.3107,-1.5072 0.5545,-2.2351 0.0863,-0.2579 0.1632,-0.7625 0.4269,-0.6956 0.2912,0.0739 0.2224,0.5675 0.2475,0.8668 0.0664,0.7908 0.0516,1.5876 0.0253,2.3808 -0.0974,2.9353 -0.3937,5.8707 -0.7327,8.7865 -0.7751,6.6648 -1.8423,13.2989 -3.0823,19.8922 -1.3179,7.0077 -2.8375,13.9824 -4.6222,20.8865 -0.9093,3.5174 -1.8891,7.0224 -3.0216,10.4751 -0.3839,1.1704 -0.7902,2.3346 -1.2404,3.4812 -0.281,0.7156 -0.5744,1.4313 -0.9516,2.1011 -0.1424,0.2529 -0.3111,0.7128 -0.5917,0.6389 -0.2769,-0.0729 -0.1854,-0.5547 -0.1761,-0.841 0.025,-0.7642 0.1465,-1.5238 0.2782,-2.2771 0.4934,-2.8235 1.2124,-5.617 1.9676,-8.3801 1.7549,-6.42 3.819,-12.7592 6.0377,-19.0327 3.0922,-8.7439 6.497,-17.3978 10.327,-25.8462 1.2507,-2.7589 2.548,-5.5079 3.99,-8.1729 0.4008,-0.7407 0.8132,-1.4776 1.2805,-2.1783 0.1884,-0.2825 0.3409,-0.7273 0.6789,-0.7596 0.23,-0.022 0.0672,0.4684 0.0136,0.6931 -0.1725,0.7229 -0.4272,1.4248 -0.6858,2.1214 -1.0231,2.7553 -2.224,5.4515 -3.446,8.1231 -2.9379,6.4232 -6.1117,12.7416 -9.3896,18.9973 -4.7037,8.9769 -9.6356,17.8469 -14.8698,26.5259 -1.7503,2.9021 -3.5337,5.7914 -5.4289,8.6016 -0.5374,0.7969 -1.0835,1.5897 -1.6729,2.349 -0.2473,0.3186 -0.4475,0.7575 -0.8322,0.8786 -0.2048,0.0645 -0.0031,-0.4399 0.0748,-0.64 0.2863,-0.7351 0.6473,-1.4399 1.0085,-2.1411 1.4676,-2.8495 3.0852,-5.628 4.7157,-8.3864 3.9619,-6.7025 8.1131,-13.2958 12.3521,-19.8259 6.0876,-9.3775 12.3639,-18.6448 18.9256,-27.6979 2.1753,-3.001 4.3805,-5.9873 6.6944,-8.8835 0.6453,-0.8078 1.2989,-1.6109 1.9943,-2.3761 0.2778,-0.3056 0.509,-0.7877 0.9199,-0.8306 0.2625,-0.0274 -0.1044,0.5252 -0.2279,0.7584 -0.4221,0.797 -0.9097,1.5584 -1.4001,2.3152 -1.9503,3.0094 -4.0406,5.9337 -6.1511,8.832 -6.9566,9.5535 -14.2718,18.8561 -21.7734,27.9864 -5.651,6.878 -11.4223,13.6641 -17.3909,20.2692 -2.6576,2.9408 -5.3518,5.8622 -8.1767,8.644 -0.778,0.7662 -1.5657,1.5262 -2.4041,2.2259 -0.3282,0.2739 -0.6695,0.7894 -1.0841,0.6853 -0.3016,-0.0758 0.1494,-0.615 0.3141,-0.8789 0.5212,-0.8351 1.1235,-1.6182 1.7287,-2.3945 2.3646,-3.0331 4.9006,-5.9416 7.4533,-8.8165 8.3143,-9.3635 17.0381,-18.3698 25.8995,-27.2143 6.4135,-6.4015 12.9163,-12.72 19.5056,-18.9405 2.7207,-2.5685 5.4524,-5.1308 8.2638,-7.6004 0.6962,-0.6116 1.395,-1.2224 2.1283,-1.7893 0.1988,-0.1537 0.7203,-0.6099 0.6595,-0.3659 -0.1072,0.4302 -0.5298,0.713 -0.8279,1.0409 -0.736,0.8098 -1.5017,1.5927 -2.2722,2.3696 -2.7431,2.7659 -5.5603,5.4611 -8.3961,8.1314 -8.527,8.0291 -17.2602,15.8469 -26.1472,23.4753 -6.2132,5.3331 -12.5041,10.5857 -18.9563,15.6284 -2.6881,2.1009 -5.4038,4.1891 -8.2288,6.1044 -0.7138,0.4839 -1.4335,0.9661 -2.1983,1.3647 -0.2348,0.1223 -0.7444,0.4471 -0.7729,0.1838 -0.0427,-0.3948 0.4173,-0.682 0.6874,-0.973 0.6705,-0.7224 1.3944,-1.3947 2.1247,-2.0565 2.6286,-2.3822 5.3827,-4.6333 8.1568,-6.8428 6.2222,-4.956 12.6163,-9.7002 19.1043,-14.3018 6.8076,-4.8283 13.7286,-9.5029 20.7863,-13.9583 3.5551,-2.2443 7.1489,-4.4348 10.8136,-6.4963 1.2266,-0.69 2.4644,-1.362 3.7209,-1.9961 0.7686,-0.3879 1.5444,-0.7693 2.3518,-1.0687 0.2746,-0.1018 0.7821,-0.4056 0.8697,-0.1261 0.1027,0.3277 -0.4007,0.5666 -0.6614,0.79 -0.6892,0.5906 -1.4295,1.1208 -2.1741,1.6397 -2.7464,1.9142 -5.6086,3.6726 -8.4832,5.386 -6.5473,3.9025 -13.2446,7.5589 -20.0162,11.0562 -7.1608,3.6983 -14.4167,7.2216 -21.7804,10.4983 -3.7154,1.6533 -7.463,3.2461 -11.2652,4.6902 -1.2699,0.4823 -2.5485,0.9444 -3.8414,1.3615 -0.7874,0.254 -1.5818,0.5017 -2.3957,0.651 -0.2756,0.0505 -0.8114,0.2213 -0.8389,-0.0577 -0.0345,-0.3503 0.4687,-0.5361 0.7609,-0.7324 0.7436,-0.4997 1.5346,-0.9275 2.3283,-1.3432 2.8932,-1.5154 5.8883,-2.8502 8.8875,-4.1398 6.7609,-2.9069 13.6386,-5.549 20.5642,-8.0356 7.2348,-2.5975 14.5359,-5.0208 21.9034,-7.2148 3.6692,-1.0926 7.3593,-2.1284 11.0798,-3.0326 1.2273,-0.2983 2.4599,-0.5784 3.6997,-0.8201 0.7425,-0.1448 1.4899,-0.2841 2.2445,-0.3391 0.2356,-0.0172 0.757,-0.1045 0.698,0.1243 -0.0857,0.3326 -0.5586,0.4087 -0.8717,0.5494 -0.7792,0.3503 -1.5853,0.64 -2.393,0.9182 -2.9039,1.0003 -5.8661,1.8449 -8.8301,2.6464 -9.0024,2.4346 -18.1305,4.4468 -27.2948,6.1679 -6.4552,1.2122 -12.947,2.2844 -19.4704,3.0588 -2.733,0.3243 -5.4901,0.6181 -8.2433,0.6894 -0.7046,0.0182 -1.4146,0.0296 -2.1139,-0.0589 -0.2336,-0.0295 -0.7034,-0.062 -0.6446,-0.2901 0.0807,-0.3128 0.538,-0.3721 0.8429,-0.4787 0.7449,-0.2604 1.5158,-0.4447 2.2863,-0.6155 2.7764,-0.6155 5.6031,-1.038 8.4208,-1.4119 6.3502,-0.8428 12.7426,-1.3944 19.1367,-1.767 6.7664,-0.3944 13.5489,-0.5835 20.3268,-0.5078 3.4633,0.0387 6.9303,0.1493 10.3848,0.406 1.1779,0.0875 2.3551,0.1975 3.5267,0.3481 0.737,0.0947 1.4759,0.2019 2.1955,0.3874 0.2759,0.0711 0.7379,0.0932 0.7676,0.3766 0.0265,0.253 -0.4449,0.2693 -0.695,0.3154 -0.7027,0.1297 -1.42,0.1734 -2.1337,0.2068 -2.72,0.1274 -5.4576,0.0493 -8.1764,-0.0684 -6.3927,-0.277 -12.7756,-0.8529 -19.1312,-1.585 -6.9658,-0.8024 -13.912,-1.8058 -20.8143,-3.0417 -3.6284,-0.6497 -7.2486,-1.3666 -10.8363,-2.2148 -1.251,-0.2958 -2.498,-0.612 -3.734,-0.9656 -0.7982,-0.2283 -1.5957,-0.4694 -2.3658,-0.7796 -0.3187,-0.1284 -0.7812,-0.2022 -0.8844,-0.53 -0.0685,-0.2177 0.4178,-0.2183 0.6457,-0.2274 0.7197,-0.0288 1.4414,0.0407 2.1577,0.1152 2.8331,0.2945 5.6533,0.8014 8.4493,1.3359 6.7046,1.2816 13.3587,2.8452 19.9685,4.5455 9.3824,2.4136 18.712,5.1078 27.8842,8.2307 3.0055,1.0234 6.0073,2.0897 8.9367,3.3168 0.8085,0.3387 1.6149,0.6889 2.3882,1.1018 0.3048,0.1627 0.7998,0.2743 0.8322,0.6183 0.0241,0.2556 -0.5125,0.1098 -0.7668,0.0743 -0.7882,-0.11 -1.5632,-0.3053 -2.3329,-0.507 -3.0005,-0.7861 -5.9581,-1.764 -8.8898,-2.7731 -6.9354,-2.3872 -13.7809,-5.0456 -20.5561,-7.8534 -7.3838,-3.0597 -14.6944,-6.3065 -21.8896,-9.7873 -3.7324,-1.8055 -7.4383,-3.676 -11.0681,-5.6809 -1.2455,-0.6879 -2.4808,-1.3962 -3.6921,-2.1428 -0.7654,-0.4717 -1.5277,-0.9553 -2.2352,-1.5103 -0.2728,-0.214 -0.7731,-0.4456 -0.6869,-0.7815 0.0733,-0.2855 0.5989,-0.0611 0.8844,0.0124 0.8223,0.2119 1.6182,0.5204 2.4065,0.8356 3.0155,1.2059 5.9547,2.6261 8.8598,4.0743 6.8015,3.3907 13.4657,7.0643 20.0383,10.8778 7.1278,4.1358 14.1532,8.454 21.0406,12.9792 3.5717,2.3466 7.1075,4.7539 10.5612,7.2715 1.1878,0.8659 2.3635,1.7495 3.5152,2.6629 0.73,0.5789 1.4545,1.1687 2.1277,1.8128 0.2591,0.2479 0.747,0.5047 0.6573,0.8519 -0.0708,0.2743 -0.5733,-0.061 -0.8312,-0.1782 -0.7855,-0.3569 -1.5341,-0.7929 -2.2758,-1.2338 -2.8755,-1.7094 -5.6548,-3.5931 -8.4025,-5.4989 -6.5093,-4.5148 -12.8593,-9.2638 -19.1164,-14.1208 -8.8642,-6.8809 -17.5627,-13.9948 -25.9937,-21.4012 -2.7915,-2.4522 -5.562,-4.9382 -8.2301,-7.5249 -0.7504,-0.7275 -1.4948,-1.4634 -2.197,-2.2378 -0.2887,-0.3185 -0.7273,-0.607 -0.7703,-1.0349 -0.0244,-0.2431 0.4847,0.114 0.6908,0.2449 0.74,0.47 1.4358,1.0079 2.1281,1.5456 2.7928,2.1693 5.4866,4.4736 8.1609,6.786 6.4773,5.6009 12.818,11.3621 19.0977,17.183 10.7306,9.9469 21.2908,20.0872 31.5795,30.4912 1.2543,1.2684 2.5034,2.5422 3.7459,3.8222 0.807,0.8314 1.6359,1.6436 2.4027,2.5122 0.2963,0.3356 0.9885,0.6971 0.7803,1.0933 -0.186,0.3539 -0.7321,-0.3388 -1.0482,-0.5837 -0.8911,-0.6905 -1.7234,-1.455 -2.559,-2.2118 -3.0181,-2.7336 -5.9423,-5.5769 -8.8269,-8.4502 -8.8604,-8.8261 -17.4001,-17.9863 -25.715,-27.3266 -5.9119,-6.6407 -11.7167,-13.3858 -17.3005,-20.3055 -2.3474,-2.9088 -4.6771,-5.849 -6.8374,-8.9009 -0.5483,-0.7746 -1.0943,-1.5553 -1.5593,-2.3828 -0.1424,-0.2534 -0.539,-0.806 -0.2497,-0.836 0.4258,-0.0441 0.7264,0.4624 1.0395,0.7542 0.7869,0.7333 1.5237,1.52 2.2512,2.3123 2.6225,2.856 5.1164,5.8356 7.5759,8.832 7.4732,9.1046 14.6156,18.4897 21.5626,28.0004 4.8718,6.6699 9.6455,13.4168 14.2389,20.2819 1.9047,2.8468 3.7921,5.7149 5.5496,8.6557 0.4375,0.732 0.8729,1.4678 1.2467,2.2342 0.1051,0.2155 0.4148,0.7544 0.1824,0.6958 -0.3937,-0.0992 -0.5983,-0.5531 -0.857,-0.866 -0.6371,-0.7706 -1.2357,-1.573 -1.8265,-2.3797 -2.1038,-2.8725 -4.1077,-5.8212 -6.0822,-8.7835 -5.9262,-8.8907 -11.5826,-17.9686 -17.0414,-27.153 -3.7923,-6.3804 -7.4967,-12.8199 -10.994,-19.3674 -1.4396,-2.6953 -2.8659,-5.4121 -4.1249,-8.1977 -0.3111,-0.6884 -0.6216,-1.3809 -0.8493,-2.1012 -0.0642,-0.2033 -0.2236,-0.6934 -0.0172,-0.6397 0.371,0.0966 0.5573,0.5319 0.7855,0.8398 0.5435,0.7333 1.0384,1.5022 1.5232,2.2753 1.7131,2.732 3.2999,5.5478 4.8473,8.376 4.6515,8.5017 8.9494,17.2081 12.975,26.0224 2.8331,6.203 5.5387,12.4737 7.9714,18.8455 1.0267,2.689 2.0243,5.4061 2.8241,8.1727 0.2073,0.7171 0.4075,1.4404 0.5207,2.1783 0.0385,0.2514 0.1833,0.7354 -0.0697,0.7597 -0.3092,0.0297 -0.4597,-0.4288 -0.6229,-0.6931 -0.4197,-0.6798 -0.7737,-1.3995 -1.1153,-2.1218 -1.2525,-2.6486 -2.3349,-5.3847 -3.3683,-8.1248 -2.3568,-6.2491 -4.4415,-12.604 -6.352,-19.0028 -2.0386,-6.8282 -3.8807,-13.7201 -5.4555,-20.6705 -0.8078,-3.5653 -1.5467,-7.1515 -2.128,-10.7613 -0.1983,-1.2315 -0.3741,-2.4677 -0.5034,-3.7085 -0.0813,-0.7801 -0.1512,-1.5657 -0.1283,-2.3498 0.009,-0.3021 -0.0655,-0.7882 0.2228,-0.8791 0.2652,-0.0836 0.4149,0.3896 0.5345,0.6404 0.3278,0.6871 0.5659,1.4153 0.7927,2.1419 0.8579,2.7489 1.5013,5.5747 2.0991,8.3896 1.3933,6.5601 2.4772,13.1901 3.3899,19.8329 0.9857,7.1733 1.7648,14.3793 2.2839,21.6018 0.2674,3.7196 0.4652,7.4484 0.5154,11.1777 0.0171,1.2705 0.0122,2.5421 -0.0345,3.8117 -0.0292,0.7942 -0.0698,1.5915 -0.1931,2.3765 -0.0458,0.292 -0.0167,0.8 -0.3107,0.8307 -0.2814,0.0294 -0.3116,-0.4843 -0.3814,-0.7585 -0.1931,-0.7589 -0.3026,-1.5383 -0.401,-2.3153 -0.3706,-2.9265 -0.5392,-5.886 -0.663,-8.8318 -0.2861,-6.8052 -0.2733,-13.6263 -0.0844,-20.434 0.2015,-7.266 0.6092,-14.5311 1.2886,-21.7685 0.3453,-3.6796 0.7619,-7.3582 1.3373,-11.0096 0.1937,-1.2296 0.4104,-2.4566 0.6736,-3.6733 0.1624,-0.7507 0.3358,-1.504 0.6026,-2.2242 0.0963,-0.2601 0.2057,-0.7521 0.4747,-0.6839 0.2996,0.076 0.2606,0.5721 0.295,0.8793 0.089,0.7933 0.0867,1.5957 0.0725,2.3938 -0.0523,2.9426 -0.3244,5.8896 -0.6388,8.814 -0.718,6.6783 -1.745,13.3272 -2.9426,19.9353 -1.2724,7.0207 -2.7498,14.0085 -4.4828,20.9304 -0.8825,3.5251 -1.8346,7.0377 -2.928,10.5037 -0.3703,1.1739 -0.7624,2.342 -1.1936,3.4949 -0.2685,0.718 -0.5488,1.4355 -0.9044,2.1145 -0.1313,0.2507 -0.2706,0.7238 -0.5443,0.6517 -0.2703,-0.0712 -0.1463,-0.5499 -0.1285,-0.8289 0.0485,-0.7613 0.1823,-1.5162 0.3261,-2.2655 0.5404,-2.8165 1.2835,-5.6019 2.0642,-8.3598 1.8149,-6.4114 3.922,-12.7433 6.1844,-19.0097 2.4585,-6.8091 5.1146,-13.5501 7.9955,-20.1917 1.5076,-3.4753 3.081,-6.9258 4.7755,-10.3143 0.5901,-1.1798 1.1994,-2.3509 1.8423,-3.5029 0.4149,-0.7435 0.842,-1.4832 1.3297,-2.1812 0.2013,-0.2882 0.3778,-0.7301 0.7278,-0.7637 0.2291,-0.022 0.1087,0.4623 0.0625,0.6877 -0.1479,0.7214 -0.3911,1.4212 -0.6373,2.1151 -0.9768,2.7531 -2.1539,5.4436 -3.3496,8.1071 -2.8801,6.4162 -6.0118,12.7227 -9.2465,18.9665 -4.6411,8.9584 -9.5164,17.8071 -14.6816,26.4745 -1.7225,2.8903 -3.4777,5.7673 -5.3354,8.5732 -0.5235,0.7907 -1.0552,1.5773 -1.6261,2.3344 -0.2343,0.3107 -0.4143,0.747 -0.7854,0.8639 -0.2116,0.0667 0.036,-0.4501 0.1217,-0.6548 0.3091,-0.738 0.6815,-1.4486 1.0555,-2.1558 1.5101,-2.8549 3.1523,-5.6446 4.8101,-8.4155 5.5438,-9.2658 11.41,-18.3472 17.4293,-27.3102 4.6019,-6.8525 9.3068,-13.6405 14.1836,-20.3007 2.2039,-3.0097 4.4387,-6.0053 6.7917,-8.9008 0.6598,-0.8119 1.3282,-1.6191 2.0429,-2.3832 0.2914,-0.3115 0.5444,-0.7923 0.9687,-0.8364 0.257,-0.0267 -0.0636,0.523 -0.1789,0.754 -0.3985,0.7988 -0.874,1.5579 -1.3511,2.3122 -1.9064,3.0142 -3.9712,5.9356 -6.0534,8.8299 -4.9951,6.9434 -10.1996,13.739 -15.5106,20.4431 -7.5151,9.4868 -15.2491,18.8187 -23.3143,27.844 -2.6298,2.943 -5.2954,5.8652 -8.0808,8.6626 -0.764,0.7673 -1.537,1.5285 -2.3561,2.2367 -0.3148,0.2722 -0.6328,0.7983 -1.0364,0.6968 -0.3035,-0.0763 0.1895,-0.6051 0.3616,-0.8665 0.5444,-0.8271 1.1584,-1.6075 1.7762,-2.3813 2.4084,-3.0165 4.9685,-5.9187 7.5481,-8.7888 10.606,-11.7998 21.8145,-23.0513 33.1831,-34.1123 4.0908,-3.98 8.2088,-7.932 12.3723,-11.836 2.7085,-2.5397 5.4272,-5.0754 8.235,-7.5058 0.6905,-0.5977 1.3832,-1.1958 2.1154,-1.7418 0.1927,-0.1436 0.7054,-0.5517 0.6472,-0.3184 -0.111,0.4447 -0.5348,0.7467 -0.8395,1.0889 -0.7371,0.8277 -1.5075,1.6256 -2.2829,2.4173 -2.7444,2.8021 -5.5704,5.5273 -8.4149,8.2272 -8.5307,8.0972 -17.2767,15.9753 -26.1727,23.6687 -6.2184,5.3776 -12.5141,10.6743 -18.9628,15.7745 -2.6914,2.1285 -5.4088,4.2416 -8.2263,6.202 -0.7144,0.497 -1.4344,0.9911 -2.1951,1.4137 -0.2338,0.1299 -0.7395,0.4986 -0.7682,0.2326 -0.0413,-0.3829 0.4262,-0.647 0.6934,-0.9243 0.6773,-0.7029 1.4015,-1.3602 2.1319,-2.0077 2.6424,-2.3428 5.398,-4.5643 8.1742,-6.7455 8.5158,-6.6907 17.3254,-13.0233 26.2967,-19.0875 6.4083,-4.3318 12.9135,-8.5359 19.575,-12.4692 2.8355,-1.6742 5.7062,-3.3241 8.6685,-4.766 0.7724,-0.376 1.5526,-0.7462 2.3665,-1.0217 0.2803,-0.0949 0.7959,-0.3615 0.8845,-0.0791 0.1056,0.3364 -0.3847,0.6012 -0.6467,0.8368 -0.6792,0.6107 -1.4174,1.1544 -2.1596,1.6864 -2.728,1.9551 -5.5862,3.7405 -8.4549,5.4797 -6.5276,3.9572 -13.2155,7.6559 -19.9769,11.197 -7.149,3.7442 -14.3952,7.3105 -21.7466,10.6405 -3.7106,1.6808 -7.4527,3.3015 -11.2466,4.7861 -1.2679,0.4961 -2.5442,0.9729 -3.8337,1.41 -0.7858,0.2664 -1.5778,0.5256 -2.3891,0.6994 -0.2716,0.0582 -0.8063,0.2676 -0.8334,-0.009 -0.0334,-0.3403 0.4769,-0.4995 0.7651,-0.6835 0.749,-0.4784 1.5386,-0.8919 2.3311,-1.294 2.901,-1.472 5.8919,-2.7787 8.8888,-4.0411 6.7634,-2.849 13.6355,-5.4467 20.5559,-7.8875 7.2289,-2.5498 14.5228,-4.9279 21.884,-7.0675 3.6624,-1.0644 7.3463,-2.0715 11.0616,-2.9353 1.2236,-0.2845 2.4527,-0.5501 3.6893,-0.7721 0.7388,-0.1326 1.4832,-0.2605 2.2333,-0.291 0.2355,-0.0095 0.7449,-0.0561 0.6861,0.1721 -0.0888,0.3443 -0.5632,0.4443 -0.8843,0.5967 -0.7807,0.3706 -1.5927,0.674 -2.4062,0.9654 -2.9081,1.0416 -5.883,1.9126 -8.8579,2.7402 -6.6199,1.8413 -13.3125,3.4316 -20.0321,4.864 -6.9723,1.4864 -13.9853,2.802 -21.0333,3.8761 -3.5063,0.5344 -7.0263,1.0101 -10.5578,1.3442 -1.169,0.1106 -2.3408,0.2015 -3.5141,0.2514 -0.7083,0.0301 -1.421,0.053 -2.1271,-0.0115 -0.2324,-0.0212 -0.7155,-0.0167 -0.6572,-0.2428 0.0778,-0.3021 0.5339,-0.3356 0.8309,-0.431 0.7442,-0.2392 1.5098,-0.4097 2.2753,-0.5675 2.7743,-0.5718 5.5911,-0.9677 8.4011,-1.3152 8.6715,-1.0726 17.4175,-1.6501 26.1496,-1.9028 6.317,-0.1826 12.6492,-0.1918 18.9626,0.1148 2.7468,0.1333 5.5104,0.3142 8.2336,0.7106 0.7394,0.1076 1.4813,0.2284 2.1989,0.4366 0.2821,0.0818 0.7415,0.1333 0.7721,0.4255 0.0271,0.2584 -0.4357,0.3083 -0.6893,0.3641 -0.6974,0.1534 -1.4144,0.2096 -2.1269,0.2554 -2.7111,0.1742 -5.4468,0.1207 -8.1598,0.028 -6.3804,-0.2181 -12.7538,-0.7526 -19.0993,-1.4425 -8.9321,-0.9711 -17.85,-2.2545 -26.6679,-3.9851 -2.8939,-0.5678 -5.7893,-1.1812 -8.636,-1.9555 -0.7919,-0.2154 -1.5831,-0.4429 -2.351,-0.7328 -0.3102,-0.1171 -0.7701,-0.1669 -0.8697,-0.4832 -0.0685,-0.2177 0.4324,-0.1791 0.6605,-0.1805 0.7262,-0.0046 1.4515,0.0759 2.1724,0.1622 2.8434,0.3405 5.6711,0.8705 8.4781,1.4303 6.7177,1.3396 13.3858,2.9444 20.0092,4.6884 7.3129,1.9254 14.5819,4.031 21.7772,6.3585 3.7826,1.2236 7.5492,2.5096 11.2643,3.9261 1.2902,0.492 2.5737,1.0038 3.8407,1.5531 0.8124,0.3522 1.6228,0.7164 2.3947,1.1505 0.3111,0.175 0.8042,0.3119 0.8377,0.6673 0.0242,0.2565 -0.507,0.1509 -0.763,0.1232 -0.787,-0.0851 -1.5617,-0.2686 -2.3302,-0.4579 -3.0016,-0.7392 -5.9595,-1.6929 -8.8888,-2.6754 -6.9398,-2.3279 -13.7866,-4.9444 -20.5638,-7.7074 -7.3883,-3.012 -14.7029,-6.2143 -21.908,-9.6423 -3.7358,-1.7772 -7.4449,-3.6189 -11.0853,-5.585 -1.2475,-0.6738 -2.4854,-1.3671 -3.7023,-2.0948 -0.7667,-0.4585 -1.5301,-0.9284 -2.2463,-1.4626 -0.2707,-0.2019 -0.7827,-0.4067 -0.6987,-0.7339 0.0724,-0.2821 0.592,-0.0208 0.8717,0.06 0.8169,0.236 1.6086,0.556 2.3934,0.8832 3.0027,1.252 5.933,2.6956 8.8318,4.169 6.7838,3.4479 13.4352,7.1633 19.9944,11.0196 7.1144,4.1827 14.1278,8.5445 20.996,13.1209 3.5648,2.3752 7.0937,4.8113 10.5326,7.3661 1.1847,0.8802 2.3568,1.7787 3.5015,2.7103 0.7281,0.5925 1.4508,1.1964 2.1144,1.8603 0.2608,0.2609 0.7369,0.5424 0.6447,0.8995 -0.0711,0.2754 -0.581,-0.0205 -0.8431,-0.1307 -0.7915,-0.3329 -1.5429,-0.7573 -2.2869,-1.1859 -2.8878,-1.6638 -5.6717,-3.524 -8.4222,-5.4033 -6.5217,-4.4565 -12.8761,-9.1628 -19.1378,-13.9762 -8.8666,-6.8158 -17.5626,-13.8705 -26.0044,-21.2066 -2.7878,-2.4226 -5.554,-4.8784 -8.2277,-7.4271 -0.7477,-0.7127 -1.4895,-1.4333 -2.1939,-2.1888 -0.2838,-0.3044 -0.7244,-0.572 -0.766,-0.9861 -0.0252,-0.2507 0.4869,0.1542 0.6964,0.2939 0.7389,0.4928 1.4386,1.0429 2.1347,1.5943 2.7919,2.2116 5.4941,4.5421 8.1774,6.8832 8.9487,7.8073 17.6679,15.8852 26.2842,24.0564 9.5975,9.1018 19.0793,18.342 28.2569,27.8688 0.8147,0.8457 1.6549,1.6692 2.4245,2.5563 0.3021,0.3482 0.5219,0.7603 0.7829,1.1404 z"
   style="fill:none;stroke:#000000;stroke-width:0.0705556;stroke-miterlimit:4;stroke-dasharray:none;stroke-opacity:1" />
  </g>
 </g>
</svg>
