<?xml version="1.0" encoding="UTF-8" standalone="no"?>
<!-- Created with Inkscape (http://www.inkscape.org/) -->

<svg
   width="1024"
   height="1024"
   viewBox="0 0 270.93333 270.93333"
   version="1.1"
   id="svg5"
   inkscape:version="1.1.1 (c3084ef, 2021-09-22)"
   sodipodi:docname="SLIP39.svg"
   inkscape:export-filename="/Users/perry/src/perry-kundert-ca/images/SLIP39.png"
   inkscape:export-xdpi="96"
   inkscape:export-ydpi="96"
   xmlns:inkscape="http://www.inkscape.org/namespaces/inkscape"
   xmlns:sodipodi="http://sodipodi.sourceforge.net/DTD/sodipodi-0.dtd"
   xmlns="http://www.w3.org/2000/svg"
   xmlns:svg="http://www.w3.org/2000/svg">
  <sodipodi:namedview
     id="namedview7"
     pagecolor="#ffffff"
     bordercolor="#666666"
     borderopacity="1.0"
     inkscape:pageshadow="2"
     inkscape:pageopacity="0.0"
     inkscape:pagecheckerboard="0"
     inkscape:document-units="mm"
     showgrid="false"
     units="px"
     inkscape:zoom="0.64052329"
     inkscape:cx="679.91283"
     inkscape:cy="470.70888"
     inkscape:window-width="1440"
     inkscape:window-height="847"
     inkscape:window-x="0"
     inkscape:window-y="25"
     inkscape:window-maximized="0"
     inkscape:current-layer="layer1" />
  <defs
     id="defs2">
    <rect
       x="220.13251"
       y="252.9182"
       width="118.65298"
       height="146.75501"
       id="rect10583" />
    <rect
       x="438.7038"
       y="613.56083"
       width="154.56112"
       height="78.061174"
       id="rect4143" />
  </defs>
  <g
     inkscape:label="Layer 1"
     inkscape:groupmode="layer"
     id="layer1">
    <text
       xml:space="preserve"
       style="font-style:normal;font-weight:normal;font-size:25.4px;line-height:1.25;font-family:sans-serif;fill:#000000;fill-opacity:1;stroke:none;stroke-width:0.264583"
       x="77.65786"
       y="54.938801"
       id="text121"><tspan
         sodipodi:role="line"
         id="tspan119"
         style="font-size:25.4px;stroke-width:0.264583"
         x="77.65786"
         y="54.938801">BTC</tspan></text>
    <text
       xml:space="preserve"
       style="font-style:normal;font-weight:normal;font-size:25.4px;line-height:1.25;font-family:sans-serif;fill:#000000;fill-opacity:1;stroke:none;stroke-width:0.264583"
       x="206.94992"
       y="85.093185"
       id="text1151"><tspan
         sodipodi:role="line"
         id="tspan1149"
         style="font-style:normal;font-variant:normal;font-weight:normal;font-stretch:normal;font-size:25.4px;font-family:Thonburi;-inkscape-font-specification:Thonburi;stroke-width:0.264583"
         x="206.94992"
         y="85.093185">ETH</tspan></text>
    <text
       xml:space="preserve"
       style="font-style:normal;font-weight:normal;font-size:10.5833px;line-height:1.25;font-family:sans-serif;fill:#000000;fill-opacity:1;stroke:none;stroke-width:0.264583"
       x="142.92351"
       y="55.351879"
       id="text1661"><tspan
         sodipodi:role="line"
         id="tspan1659"
         style="stroke-width:0.264583"
         x="142.92351"
         y="55.351879">DOGE</tspan></text>
    <text
       xml:space="preserve"
       style="font-style:normal;font-weight:normal;font-size:25.4px;line-height:1.25;font-family:sans-serif;fill:#000000;fill-opacity:1;stroke:none;stroke-width:0.264583"
       x="147.88039"
       y="219.34215"
       id="text3227"><tspan
         sodipodi:role="line"
         id="tspan3225"
         style="font-style:normal;font-variant:normal;font-weight:bold;font-stretch:normal;font-size:25.4px;font-family:'PT Mono';-inkscape-font-specification:'PT Mono Bold';stroke-width:0.264583"
         x="147.88039"
         y="219.34215">LTC</tspan></text>
    <text
       xml:space="preserve"
       transform="scale(0.26458333)"
       id="text4141"
       style="fill:black;fill-opacity:1;line-height:1.25;stroke:none;font-family:sans-serif;font-style:normal;font-weight:normal;font-size:40px;white-space:pre;shape-inside:url(#rect4143)" />
    <text
       xml:space="preserve"
       transform="scale(0.26458333)"
       id="text10581"
       style="fill:black;fill-opacity:1;line-height:1.25;stroke:none;font-family:sans-serif;font-style:normal;font-weight:normal;font-size:96.00000121px;white-space:pre;shape-inside:url(#rect10583)" />
    <g
       id="g14269"
       transform="matrix(0.26458333,0,0,0.26458333,154.90814,72.899582)">
      <polygon
         fill="#343434"
         points="125.1661,285.168 127.9611,287.958 255.9231,212.32 127.9611,0 125.1661,9.5 "
         id="polygon14257" />
      <polygon
         fill="#8c8c8c"
         points="127.962,154.158 127.962,0 0,212.32 127.962,287.959 "
         id="polygon14259" />
      <polygon
         fill="#3c3c3b"
         points="126.3861,412.3056 127.9611,416.9066 255.9991,236.5866 127.9611,312.1866 126.3861,314.1066 "
         id="polygon14261" />
      <polygon
         fill="#8c8c8c"
         points="127.962,312.1852 0,236.5852 127.962,416.9052 "
         id="polygon14263" />
      <polygon
         fill="#141414"
         points="255.9211,212.3207 127.9611,154.1587 127.9611,287.9577 "
         id="polygon14265" />
      <polygon
         fill="#393939"
         points="127.9609,287.9578 127.9609,154.1588 0.0009,212.3208 "
         id="polygon14267" />
    </g>
    <path
       d="M 132.10195,205.20482 C 123.38796,240.17435 87.958833,261.45794 52.978863,252.7309 17.998883,244.00386 -3.2749062,208.59236 5.4527838,173.61956 14.180483,138.64678 49.591973,117.35339 84.564123,126.08174 c 34.972137,8.72835 56.265517,44.1418 47.537827,79.12308 z"
       fill="#f7931a"
       id="path18367-5"
       style="stroke-width:0.0652828" />
    <path
       d="m 97.567203,180.10544 c 1.29782,-8.68722 -5.31666,-13.35757 -14.36228,-16.47288 l 2.93774,-11.76727 -7.16547,-1.78484 -2.86201,11.45783 c -1.88146,-0.46873 -3.81514,-0.91397 -5.73707,-1.35005 l 2.87245,-11.53357 -7.15829,-1.78484 -2.92925,11.76271 -14.44845,-3.57882 -1.90626,7.65183 c 0,0 5.31534,1.21818 5.20306,1.29391 2.90117,0.72464 3.42735,2.64396 3.33857,4.16637 l -8.03896,32.23678 c -0.35514,0.88132 -1.25474,2.20265 -3.28243,1.69736 0.0718,0.10445 -5.20698,-1.30566 -5.20698,-1.30566 l -3.55662,8.21195 14.42756,3.6428 -2.96516,11.90437 7.15503,1.78484 2.93774,-11.77642 c 1.95849,0.5301 3.85169,1.01973 5.70704,1.48062 l -2.92599,11.72158 7.16417,1.78484 2.96515,-11.88152 c 12.21643,2.31102 21.40306,1.37878 25.26456,-9.66189 3.1153,-8.89482 -0.15277,-14.02607 -6.58054,-17.37379 4.6808,-1.0837 8.20609,-4.16114 9.14681,-10.52167 m -16.36711,22.94831 c -2.21963,8.89481 -17.19231,4.08802 -22.05067,2.88028 l 3.93396,-15.76912 c 4.85576,1.21165 20.42642,3.61145 18.11932,12.88753 m 2.21962,-23.07757 c -2.01986,8.0951 -14.48697,3.98227 -18.53321,2.97299 l 3.56184,-14.30613 c 4.04755,1.01058 17.07218,2.89204 14.96615,11.33249"
       fill="#ffffff"
       id="path18369"
       style="stroke-width:0.0652828" />
  </g>
</svg>
